<?xml version="1.0" encoding="UTF-8" standalone="no"?><!DOCTYPE svg PUBLIC "-//W3C//DTD SVG 1.1//EN" "http://www.w3.org/Graphics/SVG/1.1/DTD/svg11.dtd"><svg width="200px" height="200px" version="1.1" xmlns="http://www.w3.org/2000/svg" xmlns:xlink="http://www.w3.org/1999/xlink" xml:space="preserve" xmlns:serif="http://www.serif.com/" style="fill-rule:evenodd;clip-rule:evenodd;stroke-linejoin:round;stroke-miterlimit:2;"><g class="svgLogo" transform="matrix(2.51604,0,0,2.51604,-13.2219,-13.2219)"><path d="M75.573,17.315C77.236,17.315 78.589,18.669 78.589,20.332L78.589,69.668C78.589,71.331 77.236,72.685 75.573,72.685L14.427,72.685C12.764,72.685 11.411,71.331 11.411,69.668L11.411,20.332C11.411,18.669 12.764,17.315 14.427,17.315L75.573,17.315ZM76.589,69.668L76.589,29.518L13.411,29.518L13.411,69.668C13.411,70.229 13.867,70.685 14.427,70.685L75.573,70.685C76.133,70.685 76.589,70.229 76.589,69.668ZM34.813,62.928C34.261,62.928 33.813,62.48 33.813,61.928L33.813,44.593C33.813,44.46 33.841,44.331 33.891,44.21C33.925,44.128 33.981,44.061 34.035,43.992C34.059,43.96 34.072,43.921 34.1,43.893C34.1,43.893 34.107,43.885 34.108,43.884L40.503,37.372C40.504,37.371 40.505,37.371 40.506,37.37C40.598,37.277 40.707,37.202 40.829,37.15C40.95,37.099 41.082,37.072 41.216,37.072L55.187,37.072C55.739,37.072 56.187,37.52 56.187,38.072L56.187,61.928C56.187,62.48 55.739,62.928 55.187,62.928L34.813,62.928ZM40.216,40.518L37.197,43.593L40.216,43.593L40.216,40.518ZM35.813,45.593L35.813,60.928L54.187,60.928L54.187,39.072L42.216,39.072L42.216,44.593C42.216,45.146 41.769,45.593 41.216,45.593L35.813,45.593ZM76.589,27.518L76.589,20.332C76.589,19.771 76.133,19.315 75.573,19.315L41.107,19.315L45.691,27.518L76.589,27.518ZM13.411,20.332L13.411,27.518L43.399,27.518L38.815,19.315L14.427,19.315C13.867,19.315 13.411,19.771 13.411,20.332ZM27.077,20.681C28.586,20.681 29.813,21.908 29.813,23.417C29.813,24.926 28.586,26.153 27.077,26.153C25.568,26.153 24.341,24.926 24.341,23.417C24.341,21.908 25.568,20.681 27.077,20.681ZM27.077,24.153C27.483,24.153 27.813,23.823 27.813,23.417C27.813,23.011 27.483,22.681 27.077,22.681C26.671,22.681 26.341,23.011 26.341,23.417C26.341,23.823 26.671,24.153 27.077,24.153ZM20.598,20.681C22.107,20.681 23.334,21.908 23.334,23.417C23.334,24.926 22.107,26.153 20.598,26.153C19.089,26.153 17.862,24.926 17.862,23.417C17.862,21.908 19.089,20.681 20.598,20.681ZM20.598,24.153C21.004,24.153 21.334,23.823 21.334,23.417C21.334,23.011 21.004,22.681 20.598,22.681C20.192,22.681 19.862,23.011 19.862,23.417C19.862,23.823 20.192,24.153 20.598,24.153ZM33.556,20.681C35.064,20.681 36.292,21.908 36.292,23.417C36.292,24.926 35.064,26.153 33.556,26.153C32.047,26.153 30.819,24.926 30.819,23.417C30.819,21.908 32.047,20.681 33.556,20.681ZM33.556,24.153C33.962,24.153 34.292,23.823 34.292,23.417C34.292,23.011 33.962,22.681 33.556,22.681C33.149,22.681 32.819,23.011 32.819,23.417C32.819,23.823 33.149,24.153 33.556,24.153Z" style="fill:rgb(240,147,131);"/></g></svg>