<?xml version="1.0" encoding="UTF-8" standalone="no"?><!DOCTYPE svg PUBLIC "-//W3C//DTD SVG 1.1//EN" "http://www.w3.org/Graphics/SVG/1.1/DTD/svg11.dtd"><svg width="200px" height="200px" version="1.1" xmlns="http://www.w3.org/2000/svg" xmlns:xlink="http://www.w3.org/1999/xlink" xml:space="preserve" xmlns:serif="http://www.serif.com/" style="fill-rule:evenodd;clip-rule:evenodd;stroke-linejoin:round;stroke-miterlimit:2;"><g id="A" transform="matrix(0.395847,0,0,0.395847,-1.33674,-1.33648)"><path d="M58.75,417.03C32.78,364.88 203.11,56.08 256.03,56.08C308.93,56.08 478.99,365.48 453.3,417.03C427.61,468.58 84.72,469.18 58.75,417.03ZM126.79,371.78C143.81,405.95 368.48,405.58 385.31,371.78C402.15,337.98 290.72,135.28 256.05,135.28C221.39,135.28 109.77,337.61 126.79,371.78ZM190.56,329.07C181.93,311.77 238.46,209.27 256.03,209.27C273.59,209.29 330.01,311.97 321.49,329.07C312.96,346.19 199.19,346.37 190.56,329.07Z" style="fill:rgb(240,147,131);"/></g></svg>