<?xml version="1.0" encoding="UTF-8" standalone="no"?><!DOCTYPE svg PUBLIC "-//W3C//DTD SVG 1.1//EN" "http://www.w3.org/Graphics/SVG/1.1/DTD/svg11.dtd"><svg width="200px" height="200px" version="1.1" xmlns="http://www.w3.org/2000/svg" xmlns:xlink="http://www.w3.org/1999/xlink" xml:space="preserve" xmlns:serif="http://www.serif.com/" style="fill-rule:evenodd;clip-rule:evenodd;stroke-linejoin:round;stroke-miterlimit:2;"><g transform="matrix(1.98869,0,0,1.98869,0.5662,0.56423)"><path d="M84.719,36.117C88.277,42.367 90.378,49.656 90.488,57.418C90.5,57.617 90.499,57.866 90.499,58.105C90.499,58.355 90.499,58.605 90.488,58.855C89.91,73.808 72.129,85.527 50,85.527C27.871,85.527 10.09,73.805 9.512,58.836C9.5,58.605 9.5,58.355 9.5,58.105C9.5,57.867 9.5,57.617 9.508,57.367C9.621,49.629 11.711,42.356 15.269,36.117C14.48,35.707 13.749,35.176 13.089,34.516L12.378,33.805C8.948,30.375 8.948,24.766 12.378,21.336L16.667,17.047C20.097,13.617 25.706,13.617 29.136,17.047L29.847,17.758C30.519,18.43 31.058,19.18 31.457,19.988C31.457,19.989 31.457,19.989 31.457,19.99C31.458,19.989 31.459,19.989 31.46,19.988C37.03,16.926 43.339,15.187 50,15.187C56.66,15.187 62.968,16.926 68.539,19.988C68.937,19.18 69.48,18.43 70.148,17.758L70.859,17.047C74.289,13.618 79.898,13.618 83.328,17.047L87.617,21.336C91.051,24.766 91.051,30.375 87.621,33.805L86.91,34.516C86.25,35.176 85.512,35.715 84.719,36.117ZM67.641,22.935C62.372,19.906 56.363,18.188 50.005,18.188C43.645,18.188 37.633,19.907 32.364,22.938C26.582,26.235 21.703,31.118 18.223,37.016C14.703,42.977 12.621,49.977 12.512,57.465C12.5,57.708 12.5,57.915 12.5,58.106C12.5,58.305 12.5,58.516 12.512,58.708C13.02,71.856 29.828,82.528 50,82.528C70.172,82.528 86.98,71.856 87.488,58.727L87.49,58.727C87.502,58.516 87.502,58.305 87.502,58.106C87.502,57.919 87.502,57.708 87.494,57.516C87.384,50.004 85.294,42.985 81.775,37.016C81.775,37.016 81.775,37.016 81.774,37.015C81.773,37.016 81.771,37.016 81.769,37.016C78.289,31.118 73.41,26.235 67.64,22.938C67.641,22.937 67.641,22.936 67.641,22.935ZM52.223,62.309C51.024,63.602 48.977,63.602 47.778,62.309L44.68,58.965C42.883,57.024 44.258,53.875 46.903,53.875L53.098,53.875C55.743,53.875 57.118,57.024 55.321,58.965L52.223,62.309ZM41.258,39.902C44.754,42.265 45.578,46.59 43.77,51.132C41.285,57.374 30.356,64.976 24.719,58.089C21.293,53.905 21.965,47.175 24.801,43.019C27.625,38.875 33.141,37.316 37.891,38.464C39.203,38.781 40.324,39.273 41.258,39.902ZM59.48,67.797C59.48,71.887 55.242,75.207 50,75.207C44.769,75.207 40.519,71.887 40.519,67.797C40.519,67.156 40.628,66.528 40.828,65.926C42.367,67.028 45.898,67.797 49.999,67.797C54.109,67.797 57.628,67.027 59.171,65.926C59.371,66.527 59.48,67.156 59.48,67.797ZM58.742,39.902C59.676,39.273 60.797,38.781 62.109,38.464C66.859,37.316 72.375,38.875 75.199,43.019C78.035,47.175 78.707,53.905 75.281,58.089C69.644,64.976 58.715,57.374 56.23,51.132C54.422,46.59 55.246,42.265 58.742,39.902Z" style="fill:rgb(240,147,131);"/></g></svg>