<?xml version="1.0" encoding="UTF-8" standalone="no"?><!DOCTYPE svg PUBLIC "-//W3C//DTD SVG 1.1//EN" "http://www.w3.org/Graphics/SVG/1.1/DTD/svg11.dtd"><svg width="200px" height="200px" version="1.1" xmlns="http://www.w3.org/2000/svg" xmlns:xlink="http://www.w3.org/1999/xlink" xml:space="preserve" xmlns:serif="http://www.serif.com/" style="fill-rule:evenodd;clip-rule:evenodd;stroke-linejoin:round;stroke-miterlimit:2;"><g transform="matrix(0.256752,0,0,0.256752,-2.69805,-3.79152)"><path d="M222.256,485.201C230.956,494.011 239.231,502.82 246.673,511.736C266.149,535.071 280.011,559.167 281.926,585.612C283.777,611.181 276.978,635.89 250.225,667.578C258.523,676.306 265.34,686.31 270.423,697.189C284.044,667.608 301.048,644.199 325.166,622.111C294.994,557.745 287.517,504.367 295.387,458.768C307.398,389.181 355.256,337.483 414.294,292.399C462.664,255.462 518.507,222.924 567.536,188.193C615.741,154.046 657.374,117.864 678.12,72.905C679.055,70.878 681.221,69.717 683.426,70.059C685.632,70.401 687.344,72.164 687.621,74.379C706.567,225.694 686.288,347.437 627.182,439.672C568.164,531.769 474.52,597.007 337.797,630.288C311.346,654.028 290.654,683.419 277.22,716.21C276.205,718.687 273.47,726.074 272.404,729.014C266.963,744.02 252.591,740.532 258.821,723.377C260.043,720.01 261.219,716.632 262.525,713.308C257.384,698.995 249.086,686.012 238.243,675.329C127.526,631.214 85.698,530.829 114.128,373.61C114.508,371.509 116.181,369.88 118.292,369.557C120.404,369.235 122.487,370.288 123.478,372.18C141.007,405.653 170.746,434.753 199.671,462.928C207.337,470.396 214.947,477.799 222.256,485.201ZM178.447,496.633C222.045,522.52 247.895,570.53 245.506,621.178C245.376,623.934 247.508,626.278 250.264,626.408C253.021,626.538 255.364,624.405 255.494,621.649C258.057,567.313 230.325,515.807 183.553,488.034C181.18,486.625 178.11,487.408 176.701,489.781C175.292,492.153 176.074,495.224 178.447,496.633Z" style="fill:rgb(240,147,131);"/></g></svg>