<?xml version="1.0" encoding="UTF-8" standalone="no"?><!DOCTYPE svg PUBLIC "-//W3C//DTD SVG 1.1//EN" "http://www.w3.org/Graphics/SVG/1.1/DTD/svg11.dtd"><svg width="800px" height="800px" version="1.1" xmlns="http://www.w3.org/2000/svg" xmlns:xlink="http://www.w3.org/1999/xlink" xml:space="preserve" xmlns:serif="http://www.serif.com/" style="fill-rule:evenodd;clip-rule:evenodd;stroke-linejoin:round;stroke-miterlimit:2;"><g transform="matrix(0.993941,0,0,0.993941,2.4234,2.42407)"><path d="M147.167,240.667C139.88,245.298 135.468,253.367 135.5,262L135.5,584.333C135.614,604 147.05,621.934 164.833,630.333L363.5,724.333C386.651,734.994 413.349,734.994 436.5,724.333L635.167,630.333C652.95,621.934 664.386,604 664.5,584.333L664.5,262C664.546,253.28 659.976,245.156 652.5,240.667L578.167,202.333L578.167,169C578.16,162.868 576.427,156.86 573.167,151.667L528.833,79.667C524.31,72.226 516.208,67.67 507.5,67.67C498.792,67.67 490.69,72.226 486.167,79.667L443.333,150L421.333,114.333C416.702,107.047 408.633,102.634 400,102.667C391.358,102.923 383.374,107.415 378.667,114.667L357,150L313.333,79.667C308.81,72.226 300.708,67.67 292,67.67C283.292,67.67 275.19,72.226 270.667,79.667L226.833,151.667C223.573,156.86 221.84,162.868 221.833,169L221.833,202.333L147.167,240.667ZM578.167,240.333L601.5,252L578.167,263L578.167,240.333ZM496.833,126L518.167,126L534.833,153L480.167,153L496.833,126ZM544.833,186.333L544.833,278.667L524.5,288.333L524.5,186.333L544.833,186.333ZM470.5,186.333L491.167,186.333L491.167,304L470.5,314L470.5,186.333ZM281.5,126L302.833,126L319.5,153L264.833,153L281.5,126ZM329.5,186.333L329.5,313.667L309.167,304L309.167,186.333L329.5,186.333ZM255.167,186.333L275.833,186.333L275.833,288.333L255.167,278.667L255.167,186.333ZM221.833,240.333L221.833,263L198.5,252L221.833,240.333ZM178.833,600C172.756,597.162 168.848,591.041 168.833,584.333L168.833,274.667L383.167,376L383.167,695.667L178.833,600ZM383.167,339L362.833,329.333L362.833,221.333L383.167,221.333L383.167,339ZM372.5,188L389.5,160.667L410.167,160.667L427.167,188L372.5,188ZM437.167,221.333L437.167,329.667L416.5,339.333L416.5,221.333L437.167,221.333ZM416.667,696L416.667,376.333L631.333,274.667L631.333,584.333C631.327,591.138 627.252,597.316 621,600L416.667,696Z" style="fill:rgb(240,147,131);fill-rule:nonzero;"/></g></svg>