<?xml version="1.0" encoding="UTF-8" standalone="no"?><!DOCTYPE svg PUBLIC "-//W3C//DTD SVG 1.1//EN" "http://www.w3.org/Graphics/SVG/1.1/DTD/svg11.dtd"><svg width="200px" height="200px" version="1.1" xmlns="http://www.w3.org/2000/svg" xmlns:xlink="http://www.w3.org/1999/xlink" xml:space="preserve" xmlns:serif="http://www.serif.com/" style="fill-rule:evenodd;clip-rule:evenodd;stroke-linejoin:round;stroke-miterlimit:2;"><g transform="matrix(1.63362,0,0,1.63362,18.3213,18.3189)"><path d="M12.5,65.995L12.5,57.385L9.135,57.385L9.135,54.306L19.619,54.306L19.619,57.385L16.254,57.385L16.254,65.995L12.5,65.995ZM19.374,60.162C19.374,58.258 19.918,56.755 21.005,55.654C22.092,54.553 23.575,54.004 25.453,54.004C27.326,54.004 28.805,54.554 29.89,55.654C30.974,56.755 31.516,58.258 31.516,60.162C31.516,62.061 30.974,63.562 29.89,64.666C28.805,65.769 27.327,66.32 25.453,66.32C23.575,66.32 22.092,65.768 21.005,64.666C19.918,63.563 19.374,62.062 19.374,60.162ZM23.16,60.162C23.16,61.267 23.345,62.08 23.716,62.599C24.086,63.118 24.665,63.376 25.454,63.376C26.237,63.376 26.811,63.118 27.176,62.603C27.541,62.088 27.723,61.274 27.723,60.163C27.723,59.047 27.541,58.23 27.176,57.715C26.811,57.2 26.237,56.942 25.454,56.942C24.665,56.942 24.086,57.201 23.716,57.719C23.345,58.236 23.16,59.051 23.16,60.162ZM32.597,65.995L32.597,54.306L38.192,54.306C39.943,54.306 41.193,54.568 41.942,55.091C42.691,55.614 43.065,56.475 43.065,57.67C43.065,58.385 42.912,58.977 42.605,59.448C42.298,59.919 41.825,60.292 41.185,60.566C41.836,60.704 42.309,60.975 42.605,61.379C42.901,61.784 43.06,62.378 43.081,63.161L43.145,64.788C43.145,64.799 43.147,64.811 43.153,64.827C43.169,65.293 43.28,65.536 43.486,65.557L43.486,65.994L39.7,65.994C39.631,65.714 39.579,65.469 39.545,65.26C39.51,65.051 39.493,64.889 39.493,64.773L39.493,63.606C39.493,63.002 39.374,62.579 39.136,62.333C38.898,62.087 38.485,61.964 37.898,61.964L36.303,61.964L36.303,65.995L32.597,65.995ZM36.303,59.329L38.01,59.329C38.608,59.329 39.02,59.248 39.248,59.087C39.476,58.926 39.589,58.644 39.589,58.241C39.589,57.829 39.475,57.542 39.248,57.381C39.02,57.219 38.576,57.139 37.915,57.139L36.304,57.139L36.304,59.329L36.303,59.329ZM45.017,65.995L45.017,54.306L50.612,54.306C52.363,54.306 53.613,54.568 54.362,55.091C55.111,55.614 55.485,56.475 55.485,57.67C55.485,58.385 55.332,58.977 55.025,59.448C54.718,59.919 54.245,60.292 53.605,60.566C54.256,60.704 54.729,60.975 55.025,61.379C55.321,61.784 55.48,62.378 55.501,63.161L55.565,64.788C55.565,64.799 55.567,64.811 55.573,64.827C55.589,65.293 55.7,65.536 55.906,65.557L55.906,65.994L52.12,65.994C52.051,65.714 51.999,65.469 51.965,65.26C51.93,65.051 51.913,64.889 51.913,64.773L51.913,63.606C51.913,63.002 51.794,62.579 51.556,62.333C51.318,62.087 50.905,61.964 50.318,61.964L48.723,61.964L48.723,65.995L45.017,65.995ZM48.723,59.329L50.43,59.329C51.028,59.329 51.44,59.248 51.668,59.087C51.896,58.926 52.009,58.644 52.009,58.241C52.009,57.829 51.895,57.542 51.668,57.381C51.44,57.219 50.996,57.139 50.335,57.139L48.724,57.139L48.724,59.329L48.723,59.329ZM57.112,65.997L57.112,54.306L66.453,54.306L66.453,57.107L60.866,57.107L60.866,58.663L65.59,58.663L65.59,61.346L60.866,61.346L60.866,63.156L66.683,63.156L66.683,65.997L57.112,65.997ZM68.128,65.995L68.128,54.306L71.691,54.306L74.968,59.742C75.069,59.895 75.176,60.113 75.29,60.393C75.403,60.673 75.524,61.012 75.651,61.409C75.619,61.203 75.595,60.975 75.58,60.726C75.564,60.477 75.556,60.176 75.556,59.822L75.556,54.306L79.135,54.306L79.135,65.995L75.556,65.995L72.279,60.599C72.178,60.44 72.069,60.215 71.949,59.924C71.829,59.633 71.71,59.3 71.588,58.924C71.625,59.131 71.651,59.346 71.667,59.571C71.683,59.796 71.691,60.112 71.691,60.519L71.691,65.995L68.128,65.995ZM83.834,65.995L83.834,57.385L80.469,57.385L80.469,54.306L90.953,54.306L90.953,57.385L87.588,57.385L87.588,65.995L83.834,65.995ZM85.249,2.083L7.533,2.083C5.328,2.083 3.533,3.878 3.533,6.083L3.533,93.917C3.533,96.122 5.328,97.917 7.533,97.917L92.464,97.917C94.669,97.917 96.464,96.122 96.464,93.917L96.464,14.593L85.249,2.083ZM59.999,21.166L64.415,21.166C65.796,21.166 66.915,19.921 66.915,18.384L66.915,5.083L75.333,5.083L75.333,24.249C75.333,24.801 74.884,25.249 74.333,25.249L33.461,25.249L33.461,5.083L57.498,5.083L57.498,18.384C57.499,19.921 58.618,21.166 59.999,21.166ZM30.461,5.083L30.461,25.249L25.331,25.249C24.778,25.249 24.331,24.801 24.331,24.249L24.331,5.083L30.461,5.083ZM6.533,43.938L93.464,43.938L93.464,75.828L6.533,75.828L6.533,43.938ZM93.463,93.917C93.463,94.468 93.014,94.917 92.463,94.917L7.533,94.917C6.982,94.917 6.533,94.468 6.533,93.917L6.533,78.827L93.464,78.827L93.464,93.917L93.463,93.917ZM6.533,40.938L6.533,6.083C6.533,5.532 6.982,5.083 7.533,5.083L21.332,5.083L21.332,24.249C21.332,26.455 23.125,28.249 25.332,28.249L74.333,28.249C76.538,28.249 78.333,26.455 78.333,24.249L78.333,5.083L83.909,5.083L93.464,15.74L93.464,40.937L6.533,40.937L6.533,40.938Z" style="fill:rgb(240,147,131);fill-rule:nonzero;"/></g></svg>