<?xml version="1.0" encoding="UTF-8" standalone="no"?>
<!DOCTYPE svg PUBLIC "-//W3C//DTD SVG 1.1//EN" "http://www.w3.org/Graphics/SVG/1.1/DTD/svg11.dtd">
<svg width="100%" height="100%" viewBox="0 0 142 142" version="1.1" xmlns="http://www.w3.org/2000/svg" xmlns:xlink="http://www.w3.org/1999/xlink" xml:space="preserve" xmlns:serif="http://www.serif.com/" style="fill-rule:evenodd;clip-rule:evenodd;stroke-linecap:square;stroke-miterlimit:1;">
    <g transform="matrix(0.651376,0,0,0.651376,71,71)">
        <g id="sonarr.svg" transform="matrix(1,0,0,1,-109,-109)">
            <clipPath id="_clip1">
                <rect x="0" y="0" width="218" height="218"/>
            </clipPath>
            <g clip-path="url(#_clip1)">
                <g id="_0" serif:id="0">
                    <path d="M72.15,90.3L76.85,87.6L81.5,90.3L81.5,95.7L76.85,98.4L72.15,95.7L72.15,90.3ZM62.85,95.7L58.2,98.4L53.55,95.7L53.55,90.3L58.2,87.6L62.85,90.3L62.85,95.7L67.5,98.4L72.15,95.7M62.85,90.3L67.5,87.6L72.15,90.3M62.85,79.55L62.85,74.15L67.5,71.45L72.15,74.15L72.15,79.55L67.5,82.2L62.85,79.55L58.2,82.2L53.55,79.55M72.15,74.15L76.85,71.45L81.5,74.15L81.5,79.55L76.85,82.2L72.15,79.55M76.85,87.6L76.85,82.2M67.5,87.6L67.5,82.2M81.5,95.7L86.15,98.4L90.8,95.7L95.45,98.4L100.1,95.7L104.75,98.4L109.4,95.7L109.4,90.3L114.05,87.6L114.05,82.2L109.4,79.55L109.4,74.15L114.05,71.45L114.05,66.05L109.4,63.35L109.4,57.95L114.05,55.25L114.05,49.85L109.4,47.2L109.4,41.8L114.05,39.1L114.05,33.7L109.4,31L109.4,25.6L114.05,22.9L114.05,17.5L109.4,14.85L109.4,9.45L114.05,6.75L114.05,1.35L109.4,-1.35L109.4,-6.75L114.05,-9.45L114.05,-14.85L109.4,-17.5L109.4,-22.9L114.05,-25.6L114.05,-31L109.4,-33.7L109.4,-39.1L114.05,-41.8L114.05,-47.2L109.4,-49.85L109.4,-55.25L114.05,-57.95L114.05,-63.35L109.4,-66.05L109.4,-71.45L114.05,-74.15L114.05,-79.55L109.4,-82.2L109.4,-87.6L114.05,-90.3L114.05,-95.7L109.4,-98.4L104.75,-95.7L100.1,-98.4L95.45,-95.7L90.8,-98.4L86.15,-95.7L81.5,-98.4L76.85,-95.7L72.15,-98.4L67.5,-95.7L62.85,-98.4L58.2,-95.7L53.55,-98.4L48.9,-95.7L44.25,-98.4L39.6,-95.7L34.95,-98.4L30.3,-95.7L25.6,-98.4L20.95,-95.7L16.3,-98.4L11.65,-95.7L7,-98.4L2.35,-95.7L-2.3,-98.4L-6.95,-95.7L-11.6,-98.4L-16.25,-95.7L-20.9,-98.4L-25.55,-95.7L-30.2,-98.4L-34.85,-95.7L-39.55,-98.4L-44.2,-95.7L-48.85,-98.4L-53.5,-95.7L-58.15,-98.4L-62.8,-95.7L-67.45,-98.4L-72.1,-95.7L-76.75,-98.4L-81.4,-95.7L-86.1,-98.4L-90.75,-95.7L-95.4,-98.4L-100.05,-95.7L-104.7,-98.4L-109.35,-95.7L-109.35,-90.3L-114,-87.6L-114,-82.2L-109.35,-79.55L-109.35,-74.15L-114,-71.45L-114,-66.05L-109.35,-63.35L-109.35,-57.95L-114,-55.25L-114,-49.85L-109.35,-47.2L-109.35,-41.8L-114,-39.1L-114,-33.7L-109.35,-31L-109.35,-25.6L-114,-22.9L-114,-17.5L-109.35,-14.85L-109.35,-9.45L-114,-6.75L-114,-1.35L-109.35,1.35L-109.35,6.75L-114,9.45L-114,14.85L-109.35,17.5L-109.35,22.9L-114,25.6L-114,31L-109.35,33.7L-109.35,39.1L-114,41.8L-114,47.2L-109.35,49.85L-109.35,55.25L-114,57.95L-114,63.35L-109.35,66.05L-109.35,71.45L-114,74.15L-114,79.55L-109.35,82.2L-109.35,87.6L-114,90.3L-114,95.7L-109.35,98.4L-104.7,95.7L-100.05,98.4L-95.4,95.7L-90.75,98.4L-86.1,95.7L-81.4,98.4L-76.75,95.7L-72.1,98.4L-67.45,95.7L-62.8,98.4L-58.15,95.7L-53.5,98.4L-48.85,95.7L-44.2,98.4L-39.55,95.7L-34.85,98.4L-30.2,95.7L-25.55,98.4L-20.9,95.7L-16.25,98.4L-11.6,95.7L-6.95,98.4L-2.3,95.7L2.35,98.4L7,95.7L11.65,98.4L16.3,95.7L20.95,98.4L25.6,95.7L30.3,98.4L34.95,95.7L39.6,98.4L44.25,95.7L48.9,98.4L53.55,95.7M44.25,95.7L44.25,90.3L48.9,87.6L53.55,90.3M44.25,79.55L44.25,74.15L48.9,71.45L53.55,74.15L53.55,79.55L48.9,82.2L44.25,79.55L39.6,82.2L34.95,79.55M58.2,87.6L58.2,82.2M48.9,87.6L48.9,82.2M53.55,63.35L53.55,57.95L58.2,55.25L62.85,57.95L62.85,63.35L58.2,66.05L53.55,63.35L48.9,66.05L44.25,63.35L44.25,57.95L48.9,55.25L53.55,57.95M62.85,74.15L58.2,71.45L58.2,66.05M53.55,74.15L58.2,71.45M48.9,71.45L48.9,66.05M48.9,55.25L48.9,49.85L53.55,47.2L58.2,49.85L58.2,55.25M67.5,71.45L67.5,66.05L72.15,63.35L76.85,66.05L76.85,71.45M67.5,66.05L62.85,63.35M58.2,49.85L62.85,47.2L67.5,49.85L67.5,55.25L62.85,57.95M72.15,63.35L72.15,57.95L76.85,55.25L81.5,57.95L81.5,63.35L76.85,66.05M76.85,55.25L76.85,49.85L81.5,47.2L86.15,49.85L86.15,55.25L81.5,57.95M67.5,55.25L72.15,57.95M34.95,95.7L34.95,90.3L39.6,87.6L44.25,90.3M16.3,95.7L16.3,90.3L20.95,87.6L25.6,90.3L25.6,95.7M25.6,90.3L30.3,87.6L34.95,90.3M25.6,79.55L25.6,74.15L30.3,71.45L34.95,74.15L34.95,79.55L30.3,82.2L25.6,79.55L20.95,82.2L16.3,79.55L16.3,74.15L20.95,71.45L25.6,74.15M20.95,87.6L20.95,82.2M39.6,87.6L39.6,82.2M30.3,87.6L30.3,82.2M7,95.7L7,90.3L11.65,87.6L16.3,90.3M-2.3,95.7L-2.3,90.3L2.35,87.6L7,90.3M2.35,82.2L-2.3,79.55L-2.3,74.15L2.35,71.45L7,74.15L7,79.55L2.35,82.2ZM16.3,79.55L11.65,82.2L7,79.55M2.35,87.6L2.35,82.2M11.65,87.6L11.65,82.2M16.3,74.15L11.65,71.45L11.65,66.05L16.3,63.35L20.95,66.05L20.95,71.45M2.35,71.45L2.35,66.05L7,63.35L11.65,66.05M2.35,49.85L7,47.2L11.65,49.85L11.65,55.25L7,57.95L2.35,55.25L2.35,49.85L-2.3,47.2L-2.3,41.8L2.35,39.1L7,41.8L7,47.2M11.65,55.25L16.3,57.95L16.3,63.35M7,74.15L11.65,71.45M7,57.95L7,63.35M30.3,71.45L30.3,66.05L34.95,63.35L39.6,66.05L39.6,71.45L34.95,74.15M16.3,57.95L20.95,55.25L25.6,57.95L25.6,63.35L20.95,66.05M30.3,66.05L25.6,63.35M30.3,49.85L34.95,47.2L39.6,49.85L39.6,55.25L34.95,57.95L30.3,55.25L30.3,49.85L25.6,47.2L25.6,41.8L20.95,39.1L20.95,33.7L25.6,31L30.3,33.7L30.3,39.1L25.6,41.8M11.65,49.85L16.3,47.2L20.95,49.85L20.95,55.25M25.6,57.95L30.3,55.25M34.95,57.95L34.95,63.35M34.95,47.2L34.95,41.8L39.6,39.1L44.25,41.8L44.25,47.2L39.6,49.85M25.6,31L25.6,25.6L30.3,22.9L34.95,25.6L34.95,31L30.3,33.7M34.95,25.6L39.6,22.9L44.25,25.6L44.25,31L39.6,33.7L34.95,31M30.3,39.1L34.95,41.8M39.6,39.1L39.6,33.7M20.95,39.1L16.3,41.8L11.65,39.1L11.65,33.7L16.3,31L20.95,33.7M16.3,41.8L16.3,47.2M2.35,33.7L-2.3,31L-2.3,25.6L2.35,22.9L7,25.6L7,31L2.35,33.7ZM7,25.6L11.65,22.9L16.3,25.6L16.3,31M2.35,39.1L2.35,33.7M11.65,33.7L7,31M7,41.8L11.65,39.1M11.65,17.5L7,14.85L7,9.45L11.65,6.75L16.3,9.45L16.3,14.85L11.65,17.5ZM11.65,22.9L11.65,17.5M2.35,22.9L2.35,17.5L7,14.85M7,9.45L2.35,6.75L2.35,1.35L7,-1.35L11.65,1.35L11.65,6.75M34.95,14.85L34.95,9.45L39.6,6.75L44.25,9.45L44.25,14.85L39.6,17.5L34.95,14.85ZM39.6,22.9L39.6,17.5M25.6,25.6L20.95,22.9L20.95,17.5L25.6,14.85L30.3,17.5L30.3,22.9M16.3,9.45L20.95,6.75L25.6,9.45L25.6,14.85M34.95,9.45L30.3,6.75L30.3,1.35L34.95,-1.35L39.6,1.35L39.6,6.75M11.65,1.35L16.3,-1.35L20.95,1.35L20.95,6.75M25.6,9.45L30.3,6.75M30.3,17.5L34.95,14.85M16.3,25.6L20.95,22.9M20.95,17.5L16.3,14.85M76.85,49.85L72.15,47.2L72.15,41.8L76.85,39.1L81.5,41.8L81.5,47.2M62.85,47.2L62.85,41.8L67.5,39.1L72.15,41.8M62.85,25.6L67.5,22.9L72.15,25.6L72.15,31L67.5,33.7L62.85,31L62.85,25.6L58.2,22.9L58.2,17.5M72.15,25.6L76.85,22.9L81.5,25.6L81.5,31L76.85,33.7L72.15,31M76.85,39.1L76.85,33.7M67.5,39.1L67.5,33.7M53.55,47.2L53.55,41.8L58.2,39.1L62.85,41.8M44.25,41.8L48.9,39.1L53.55,41.8M44.25,25.6L48.9,22.9L53.55,25.6L53.55,31L48.9,33.7L44.25,31M62.85,31L58.2,33.7L53.55,31M58.2,39.1L58.2,33.7M48.9,39.1L48.9,33.7M53.55,14.85L53.55,9.45L58.2,6.75L62.85,9.45L62.85,14.85L58.2,17.5L53.55,14.85L48.9,17.5L44.25,14.85M48.9,22.9L48.9,17.5M53.55,9.45L48.9,6.75L48.9,1.35L53.55,-1.35L58.2,1.35L58.2,6.75M44.25,9.45L48.9,6.75M76.85,22.9L76.85,17.5L81.5,14.85L86.15,17.5L86.15,22.9L81.5,25.6M76.85,17.5L72.15,14.85L72.15,9.45L76.85,6.75L81.5,9.45L81.5,14.85M67.5,22.9L67.5,17.5L72.15,14.85M67.5,17.5L62.85,14.85M72.15,9.45L67.5,6.75L67.5,1.35L72.15,-1.35L76.85,1.35L76.85,6.75M62.85,9.45L67.5,6.75M53.55,25.6L58.2,22.9M44.25,63.35L39.6,66.05M39.6,55.25L44.25,57.95M39.6,71.45L44.25,74.15M67.5,49.85L72.15,47.2M48.9,49.85L44.25,47.2M25.6,47.2L20.95,49.85M104.75,87.6L100.1,90.3L95.45,87.6L95.45,82.2L100.1,79.55L104.75,82.2L104.75,87.6L109.4,90.3M109.4,79.55L104.75,82.2M100.1,95.7L100.1,90.3M81.5,90.3L86.15,87.6L90.8,90.3L90.8,95.7M81.5,74.15L86.15,71.45L90.8,74.15L90.8,79.55L86.15,82.2L81.5,79.55M90.8,79.55L95.45,82.2M86.15,87.6L86.15,82.2M90.8,90.3L95.45,87.6M95.45,71.45L95.45,66.05L100.1,63.35L104.75,66.05L104.75,71.45L100.1,74.15L95.45,71.45L90.8,74.15M86.15,55.25L90.8,57.95L90.8,63.35L86.15,66.05L81.5,63.35M86.15,71.45L86.15,66.05M95.45,55.25L95.45,49.85L100.1,47.2L104.75,49.85L104.75,55.25L100.1,57.95L95.45,55.25L90.8,57.95M100.1,63.35L100.1,57.95M90.8,63.35L95.45,66.05M109.4,63.35L104.75,66.05M104.75,71.45L109.4,74.15M104.75,55.25L109.4,57.95M100.1,79.55L100.1,74.15M100.1,47.2L100.1,41.8L104.75,39.1L109.4,41.8M100.1,41.8L95.45,39.1L95.45,33.7L100.1,31L104.75,33.7L104.75,39.1M109.4,31L104.75,33.7M81.5,41.8L86.15,39.1L90.8,41.8L90.8,47.2L86.15,49.85M86.15,22.9L90.8,25.6L90.8,31L86.15,33.7L81.5,31M100.1,31L100.1,25.6L104.75,22.9L109.4,25.6M90.8,31L95.45,33.7M86.15,39.1L86.15,33.7M90.8,41.8L95.45,39.1M86.15,17.5L90.8,14.85L95.45,17.5L95.45,22.9L90.8,25.6M90.8,14.85L90.8,9.45L95.45,6.75L100.1,9.45L100.1,14.85L95.45,17.5M81.5,9.45L86.15,6.75L90.8,9.45M86.15,6.75L86.15,1.35L90.8,-1.35L95.45,1.35L95.45,6.75M100.1,14.85L104.75,17.5L104.75,22.9M109.4,14.85L104.75,17.5M100.1,9.45L104.75,6.75L109.4,9.45M95.45,1.35L100.1,-1.35L104.75,1.35L104.75,6.75M95.45,22.9L100.1,25.6M109.4,47.2L104.75,49.85M90.8,47.2L95.45,49.85M104.75,-9.45L100.1,-6.75L95.45,-9.45L95.45,-14.85L100.1,-17.5L104.75,-14.85L104.75,-9.45L109.4,-6.75M109.4,-17.5L104.75,-14.85M100.1,-1.35L100.1,-6.75M90.8,-1.35L90.8,-6.75L95.45,-9.45M81.5,-6.75L76.85,-9.45L76.85,-14.85L81.5,-17.5L86.15,-14.85L86.15,-9.45L81.5,-6.75L81.5,-1.35L76.85,1.35M90.8,-6.75L86.15,-9.45M95.45,-14.85L90.8,-17.5L90.8,-22.9L95.45,-25.6L100.1,-22.9L100.1,-17.5M76.85,-14.85L72.15,-17.5L72.15,-22.9L76.85,-25.6L81.5,-22.9L81.5,-17.5M86.15,-14.85L90.8,-17.5M95.45,-31L90.8,-33.7L90.8,-39.1L95.45,-41.8L100.1,-39.1L100.1,-33.7L95.45,-31ZM95.45,-25.6L95.45,-31M90.8,-22.9L86.15,-25.6L86.15,-31L90.8,-33.7M86.15,-31L81.5,-33.7L81.5,-39.1L86.15,-41.8L90.8,-39.1M86.15,-41.8L86.15,-47.2L90.8,-49.85L95.45,-47.2L95.45,-41.8M100.1,-33.7L104.75,-31L104.75,-25.6L100.1,-22.9M109.4,-33.7L104.75,-31M95.45,-47.2L100.1,-49.85L104.75,-47.2L104.75,-41.8L100.1,-39.1M104.75,-41.8L109.4,-39.1M81.5,-22.9L86.15,-25.6M104.75,-25.6L109.4,-22.9M100.1,-49.85L100.1,-55.25L104.75,-57.95L109.4,-55.25M109.4,-66.05L104.75,-63.35L100.1,-66.05L100.1,-71.45L104.75,-74.15L109.4,-71.45M104.75,-63.35L104.75,-57.95M100.1,-55.25L95.45,-57.95L95.45,-63.35L100.1,-66.05M86.15,-47.2L81.5,-49.85L81.5,-55.25L86.15,-57.95L90.8,-55.25L90.8,-49.85M86.15,-74.15L90.8,-71.45L90.8,-66.05L86.15,-63.35L81.5,-66.05L81.5,-71.45L86.15,-74.15L86.15,-79.55L90.8,-82.2L95.45,-79.55M90.8,-71.45L95.45,-74.15L100.1,-71.45M95.45,-63.35L90.8,-66.05M90.8,-55.25L95.45,-57.95M86.15,-57.95L86.15,-63.35M95.45,-74.15L95.45,-79.55L100.1,-82.2L104.75,-79.55L104.75,-74.15M81.5,-71.45L76.85,-74.15L76.85,-79.55L81.5,-82.2L86.15,-79.55M81.5,-82.2L81.5,-87.6L86.15,-90.3L90.8,-87.6L90.8,-82.2M86.15,-90.3L86.15,-95.7M104.75,-95.7L104.75,-90.3L100.1,-87.6L95.45,-90.3L95.45,-95.7M100.1,-82.2L100.1,-87.6M95.45,-90.3L90.8,-87.6M109.4,-82.2L104.75,-79.55M104.75,-90.3L109.4,-87.6M109.4,-49.85L104.75,-47.2M72.15,-1.35L72.15,-6.75L76.85,-9.45M67.5,1.35L62.85,-1.35L62.85,-6.75L67.5,-9.45L72.15,-6.75M72.15,-17.5L67.5,-14.85L62.85,-17.5L62.85,-22.9L67.5,-25.6L72.15,-22.9M67.5,-14.85L67.5,-9.45M53.55,-1.35L53.55,-6.75L58.2,-9.45L62.85,-6.75M48.9,1.35L44.25,-1.35L44.25,-6.75L48.9,-9.45L53.55,-6.75M44.25,-22.9L48.9,-25.6L53.55,-22.9L53.55,-17.5L48.9,-14.85L44.25,-17.5L44.25,-22.9L39.6,-25.6L39.6,-31M53.55,-17.5L58.2,-14.85L58.2,-9.45M48.9,-9.45L48.9,-14.85M53.55,-33.7L53.55,-39.1L58.2,-41.8L62.85,-39.1L62.85,-33.7L58.2,-31L53.55,-33.7ZM62.85,-22.9L58.2,-25.6L58.2,-31M48.9,-25.6L48.9,-31L53.55,-33.7M48.9,-31L44.25,-33.7L44.25,-39.1L48.9,-41.8L53.55,-39.1M48.9,-41.8L48.9,-47.2L53.55,-49.85L58.2,-47.2L58.2,-41.8M76.85,-25.6L76.85,-31L81.5,-33.7M76.85,-31L72.15,-33.7L72.15,-39.1L76.85,-41.8L81.5,-39.1M62.85,-33.7L67.5,-31L67.5,-25.6M72.15,-39.1L67.5,-41.8L67.5,-47.2L72.15,-49.85L76.85,-47.2L76.85,-41.8M62.85,-39.1L67.5,-41.8M72.15,-33.7L67.5,-31M53.55,-22.9L58.2,-25.6M58.2,-14.85L62.85,-17.5M30.3,1.35L25.6,-1.35L25.6,-6.75L30.3,-9.45L34.95,-6.75L34.95,-1.35M30.3,-9.45L30.3,-14.85L34.95,-17.5L39.6,-14.85L39.6,-9.45L34.95,-6.75M16.3,-1.35L16.3,-6.75L20.95,-9.45L25.6,-6.75M30.3,-14.85L25.6,-17.5L25.6,-22.9L30.3,-25.6L34.95,-22.9L34.95,-17.5M25.6,-17.5L20.95,-14.85L16.3,-17.5L16.3,-22.9L20.95,-25.6L25.6,-22.9M20.95,-14.85L20.95,-9.45M16.3,-6.75L11.65,-9.45L11.65,-14.85L16.3,-17.5M2.35,1.35L-2.3,-1.35L-2.3,-6.75L2.35,-9.45L7,-6.75L7,-1.35M7,-17.5L2.35,-14.85L-2.3,-17.5L-2.3,-22.9L2.35,-25.6L7,-22.9L7,-17.5L11.65,-14.85M11.65,-9.45L7,-6.75M2.35,-9.45L2.35,-14.85M11.65,-31L7,-33.7L7,-39.1L11.65,-41.8L16.3,-39.1L16.3,-33.7L11.65,-31ZM16.3,-22.9L11.65,-25.6L11.65,-31M2.35,-25.6L2.35,-31L7,-33.7M7,-39.1L2.35,-41.8L2.35,-47.2L7,-49.85L11.65,-47.2L11.65,-41.8M44.25,-33.7L39.6,-31L34.95,-33.7L34.95,-39.1L39.6,-41.8L44.25,-39.1M20.95,-25.6L20.95,-31L25.6,-33.7L30.3,-31L30.3,-25.6M20.95,-47.2L25.6,-49.85L30.3,-47.2L30.3,-41.8L25.6,-39.1L20.95,-41.8L20.95,-47.2L16.3,-49.85L16.3,-55.25L20.95,-57.95L25.6,-55.25M30.3,-47.2L34.95,-49.85L39.6,-47.2L39.6,-41.8M30.3,-41.8L34.95,-39.1M25.6,-33.7L25.6,-39.1M34.95,-33.7L30.3,-31M34.95,-22.9L39.6,-25.6M20.95,-31L16.3,-33.7M16.3,-39.1L20.95,-41.8M7,-22.9L11.65,-25.6M34.95,-55.25L30.3,-57.95L30.3,-63.35L34.95,-66.05L39.6,-63.35L39.6,-57.95L34.95,-55.25L34.95,-49.85M25.6,-49.85L25.6,-55.25L30.3,-57.95M30.3,-63.35L25.6,-66.05L25.6,-71.45L30.3,-74.15L34.95,-71.45L34.95,-66.05M25.6,-66.05L20.95,-63.35L16.3,-66.05L16.3,-71.45L20.95,-74.15L25.6,-71.45M30.3,-74.15L30.3,-79.55L34.95,-82.2L39.6,-79.55L39.6,-74.15L34.95,-71.45M20.95,-63.35L20.95,-57.95M7,-49.85L7,-55.25L11.65,-57.95L16.3,-55.25M2.35,-47.2L-2.3,-49.85L-2.3,-55.25L2.35,-57.95L7,-55.25M2.35,-63.35L-2.3,-66.05L-2.3,-71.45L2.35,-74.15L7,-71.45L7,-66.05L2.35,-63.35ZM16.3,-71.45L11.65,-74.15L11.65,-79.55L16.3,-82.2L20.95,-79.55L20.95,-74.15M11.65,-57.95L11.65,-63.35L16.3,-66.05M2.35,-57.95L2.35,-63.35M7,-66.05L11.65,-63.35M11.65,-74.15L7,-71.45M2.35,-74.15L2.35,-79.55L7,-82.2L11.65,-79.55M11.65,-95.7L11.65,-90.3L7,-87.6L2.35,-90.3L2.35,-95.7M20.95,-95.7L20.95,-90.3L16.3,-87.6L11.65,-90.3M7,-87.6L7,-82.2M16.3,-87.6L16.3,-82.2M20.95,-90.3L25.6,-87.6L25.6,-82.2L20.95,-79.55M30.3,-79.55L25.6,-82.2M30.3,-95.7L30.3,-90.3L25.6,-87.6M48.9,-95.7L48.9,-90.3L44.25,-87.6L39.6,-90.3L39.6,-95.7M34.95,-82.2L34.95,-87.6L39.6,-90.3M30.3,-90.3L34.95,-87.6M72.15,-49.85L72.15,-55.25L76.85,-57.95L81.5,-55.25M67.5,-47.2L62.85,-49.85L62.85,-55.25L67.5,-57.95L72.15,-55.25M67.5,-74.15L72.15,-71.45L72.15,-66.05L67.5,-63.35L62.85,-66.05L62.85,-71.45L67.5,-74.15L67.5,-79.55L72.15,-82.2L76.85,-79.55M81.5,-66.05L76.85,-63.35L72.15,-66.05M72.15,-71.45L76.85,-74.15M76.85,-63.35L76.85,-57.95M67.5,-57.95L67.5,-63.35M53.55,-49.85L53.55,-55.25L58.2,-57.95L62.85,-55.25M48.9,-47.2L44.25,-49.85L44.25,-55.25L48.9,-57.95L53.55,-55.25M44.25,-66.05L44.25,-71.45L48.9,-74.15L53.55,-71.45L53.55,-66.05L48.9,-63.35L44.25,-66.05L39.6,-63.35M62.85,-66.05L58.2,-63.35L53.55,-66.05M53.55,-71.45L58.2,-74.15L62.85,-71.45M58.2,-57.95L58.2,-63.35M48.9,-57.95L48.9,-63.35M48.9,-74.15L48.9,-79.55L53.55,-82.2L58.2,-79.55L58.2,-74.15M48.9,-79.55L44.25,-82.2L44.25,-87.6M58.2,-95.7L58.2,-90.3L53.55,-87.6L48.9,-90.3M53.55,-87.6L53.55,-82.2M58.2,-79.55L62.85,-82.2L67.5,-79.55M62.85,-82.2L62.85,-87.6L67.5,-90.3L72.15,-87.6L72.15,-82.2M67.5,-90.3L67.5,-95.7M76.85,-95.7L76.85,-90.3L72.15,-87.6M58.2,-90.3L62.85,-87.6M44.25,-17.5L39.6,-14.85M39.6,-9.45L44.25,-6.75M39.6,-74.15L44.25,-71.45M39.6,-57.95L44.25,-55.25M44.25,-49.85L39.6,-47.2M62.85,-49.85L58.2,-47.2M16.3,-49.85L11.65,-47.2M44.25,-82.2L39.6,-79.55M76.85,-90.3L81.5,-87.6M81.5,-49.85L76.85,-47.2M86.15,1.35L81.5,-1.35M44.25,-1.35L39.6,1.35M62.85,-1.35L58.2,1.35M109.4,-1.35L104.75,1.35M25.6,-1.35L20.95,1.35M-95.4,95.7L-95.4,90.3L-90.75,87.6L-86.1,90.3L-86.1,95.7M-86.1,90.3L-81.4,87.6L-76.75,90.3L-76.75,95.7M-104.7,95.7L-104.7,90.3L-100.05,87.6L-95.4,90.3M-100.05,82.2L-104.7,79.55L-104.7,74.15L-100.05,71.45L-95.4,74.15L-95.4,79.55L-100.05,82.2ZM-95.4,74.15L-90.75,71.45L-86.1,74.15L-86.1,79.55L-90.75,82.2L-95.4,79.55M-86.1,74.15L-81.4,71.45L-76.75,74.15L-76.75,79.55L-81.4,82.2L-86.1,79.55M-100.05,87.6L-100.05,82.2M-90.75,87.6L-90.75,82.2M-81.4,87.6L-81.4,82.2M-109.35,87.6L-104.7,90.3M-104.7,79.55L-109.35,82.2M-109.35,55.25L-104.7,57.95L-104.7,63.35L-109.35,66.05M-109.35,71.45L-104.7,74.15M-90.75,66.05L-95.4,63.35L-95.4,57.95L-90.75,55.25L-86.1,57.95L-86.1,63.35L-90.75,66.05L-90.75,71.45M-86.1,57.95L-81.4,55.25L-76.75,57.95L-76.75,63.35L-81.4,66.05L-86.1,63.35M-81.4,71.45L-81.4,66.05M-100.05,71.45L-100.05,66.05L-95.4,63.35M-95.4,57.95L-100.05,55.25L-100.05,49.85L-95.4,47.2L-90.75,49.85L-90.75,55.25M-81.4,55.25L-81.4,49.85L-76.75,47.2L-72.1,49.85L-72.1,55.25L-76.75,57.95M-100.05,66.05L-104.7,63.35M-104.7,57.95L-100.05,55.25M-86.1,41.8L-90.75,39.1L-90.75,33.7L-86.1,31L-81.4,33.7L-81.4,39.1L-86.1,41.8ZM-81.4,49.85L-86.1,47.2L-86.1,41.8M-100.05,49.85L-104.7,47.2L-104.7,41.8L-100.05,39.1L-95.4,41.8L-95.4,47.2M-95.4,31L-100.05,33.7L-104.7,31L-104.7,25.6L-100.05,22.9L-95.4,25.6L-95.4,31L-90.75,33.7M-86.1,31L-86.1,25.6L-81.4,22.9L-76.75,25.6L-76.75,31L-81.4,33.7M-100.05,39.1L-100.05,33.7M-90.75,39.1L-95.4,41.8M-109.35,39.1L-104.7,41.8M-104.7,31L-109.35,33.7M-109.35,6.75L-104.7,9.45L-104.7,14.85L-109.35,17.5M-86.1,14.85L-86.1,9.45L-81.4,6.75L-76.75,9.45L-76.75,14.85L-81.4,17.5L-86.1,14.85ZM-81.4,22.9L-81.4,17.5M-86.1,25.6L-90.75,22.9L-90.75,17.5L-86.1,14.85M-100.05,22.9L-100.05,17.5L-95.4,14.85L-90.75,17.5M-100.05,6.75L-100.05,1.35L-95.4,-1.35L-90.75,1.35L-90.75,6.75L-95.4,9.45L-100.05,6.75ZM-81.4,6.75L-81.4,1.35L-76.75,-1.35L-72.1,1.35L-72.1,6.75L-76.75,9.45M-90.75,6.75L-86.1,9.45M-95.4,14.85L-95.4,9.45M-95.4,25.6L-90.75,22.9M-100.05,17.5L-104.7,14.85M-104.7,9.45L-100.05,6.75M-109.35,22.9L-104.7,25.6M-86.1,47.2L-90.75,49.85M-104.7,47.2L-109.35,49.85M-11.6,95.7L-11.6,90.3L-6.95,87.6L-2.3,90.3M-20.9,95.7L-20.9,90.3L-16.25,87.6L-11.6,90.3M-16.25,82.2L-20.9,79.55L-20.9,74.15L-16.25,71.45L-11.6,74.15L-11.6,79.55L-16.25,82.2L-16.25,87.6M-2.3,79.55L-6.95,82.2L-11.6,79.55M-6.95,82.2L-6.95,87.6M-30.2,95.7L-30.2,90.3L-25.55,87.6L-20.9,90.3M-39.55,95.7L-39.55,90.3L-34.85,87.6L-30.2,90.3M-39.55,79.55L-39.55,74.15L-34.85,71.45L-30.2,74.15L-30.2,79.55L-34.85,82.2L-39.55,79.55L-44.2,82.2L-48.85,79.55M-20.9,79.55L-25.55,82.2L-30.2,79.55M-34.85,87.6L-34.85,82.2M-25.55,87.6L-25.55,82.2M-20.9,74.15L-25.55,71.45L-25.55,66.05L-20.9,63.35L-16.25,66.05L-16.25,71.45M-30.2,74.15L-25.55,71.45M-25.55,66.05L-30.2,63.35L-30.2,57.95L-25.55,55.25L-20.9,57.95L-20.9,63.35M-39.55,74.15L-44.2,71.45L-44.2,66.05L-39.55,63.35L-34.85,66.05L-34.85,71.45M-30.2,57.95L-34.85,55.25L-34.85,49.85L-30.2,47.2L-25.55,49.85L-25.55,55.25M-39.55,63.35L-39.55,57.95L-34.85,55.25M-30.2,63.35L-34.85,66.05M-11.6,74.15L-6.95,71.45L-2.3,74.15M-6.95,66.05L-11.6,63.35L-11.6,57.95L-6.95,55.25L-2.3,57.95L-2.3,63.35L-6.95,66.05L-6.95,71.45M-16.25,66.05L-11.6,63.35M-11.6,57.95L-16.25,55.25L-16.25,49.85L-11.6,47.2L-6.95,49.85L-6.95,55.25M-16.25,55.25L-20.9,57.95M-48.85,95.7L-48.85,90.3L-44.2,87.6L-39.55,90.3M-58.15,95.7L-58.15,90.3L-53.5,87.6L-48.85,90.3M-58.15,79.55L-58.15,74.15L-53.5,71.45L-48.85,74.15L-48.85,79.55L-53.5,82.2L-58.15,79.55L-62.8,82.2L-67.45,79.55M-44.2,87.6L-44.2,82.2M-53.5,87.6L-53.5,82.2M-67.45,95.7L-67.45,90.3L-62.8,87.6L-58.15,90.3M-76.75,90.3L-72.1,87.6L-67.45,90.3M-76.75,74.15L-72.1,71.45L-67.45,74.15L-67.45,79.55L-72.1,82.2L-76.75,79.55M-62.8,87.6L-62.8,82.2M-72.1,87.6L-72.1,82.2M-67.45,74.15L-62.8,71.45L-58.15,74.15M-62.8,71.45L-62.8,66.05L-58.15,63.35L-53.5,66.05L-53.5,71.45M-62.8,66.05L-67.45,63.35L-67.45,57.95L-62.8,55.25L-58.15,57.95L-58.15,63.35M-76.75,63.35L-72.1,66.05L-72.1,71.45M-62.8,55.25L-62.8,49.85L-58.15,47.2L-53.5,49.85L-53.5,55.25L-58.15,57.95M-67.45,63.35L-72.1,66.05M-72.1,55.25L-67.45,57.95M-48.85,74.15L-44.2,71.45M-44.2,66.05L-48.85,63.35L-48.85,57.95L-44.2,55.25L-39.55,57.95M-53.5,49.85L-48.85,47.2L-44.2,49.85L-44.2,55.25M-53.5,66.05L-48.85,63.35M-53.5,55.25L-48.85,57.95M-48.85,47.2L-48.85,41.8L-44.2,39.1L-39.55,41.8L-39.55,47.2L-44.2,49.85M-58.15,47.2L-58.15,41.8L-53.5,39.1L-48.85,41.8M-58.15,25.6L-53.5,22.9L-48.85,25.6L-48.85,31L-53.5,33.7L-58.15,31L-58.15,25.6L-62.8,22.9L-62.8,17.5M-48.85,25.6L-44.2,22.9L-39.55,25.6L-39.55,31L-44.2,33.7L-48.85,31M-44.2,39.1L-44.2,33.7M-53.5,39.1L-53.5,33.7M-62.8,49.85L-67.45,47.2L-67.45,41.8L-62.8,39.1L-58.15,41.8M-76.75,47.2L-76.75,41.8L-72.1,39.1L-67.45,41.8M-76.75,25.6L-72.1,22.9L-67.45,25.6L-67.45,31L-72.1,33.7L-76.75,31M-58.15,31L-62.8,33.7L-67.45,31M-72.1,39.1L-72.1,33.7M-62.8,39.1L-62.8,33.7M-67.45,14.85L-67.45,9.45L-62.8,6.75L-58.15,9.45L-58.15,14.85L-62.8,17.5L-67.45,14.85L-72.1,17.5L-76.75,14.85M-72.1,22.9L-72.1,17.5M-62.8,6.75L-62.8,1.35L-58.15,-1.35L-53.5,1.35L-53.5,6.75L-58.15,9.45M-72.1,6.75L-67.45,9.45M-44.2,22.9L-44.2,17.5L-39.55,14.85L-34.85,17.5L-34.85,22.9L-39.55,25.6M-44.2,17.5L-48.85,14.85L-48.85,9.45L-44.2,6.75L-39.55,9.45L-39.55,14.85M-48.85,14.85L-53.5,17.5L-58.15,14.85M-53.5,22.9L-53.5,17.5M-44.2,6.75L-44.2,1.35L-39.55,-1.35L-34.85,1.35L-34.85,6.75L-39.55,9.45M-53.5,6.75L-48.85,9.45M-67.45,25.6L-62.8,22.9M-11.6,47.2L-11.6,41.8L-6.95,39.1L-2.3,41.8M-11.6,41.8L-16.25,39.1L-16.25,33.7L-11.6,31L-6.95,33.7L-6.95,39.1M-16.25,33.7L-20.9,31L-20.9,25.6L-16.25,22.9L-11.6,25.6L-11.6,31M-2.3,31L-6.95,33.7M-30.2,47.2L-30.2,41.8L-25.55,39.1L-20.9,41.8L-20.9,47.2L-25.55,49.85M-39.55,41.8L-34.85,39.1L-30.2,41.8M-34.85,22.9L-30.2,25.6L-30.2,31L-34.85,33.7L-39.55,31M-20.9,31L-25.55,33.7L-30.2,31M-34.85,39.1L-34.85,33.7M-25.55,39.1L-25.55,33.7M-20.9,25.6L-25.55,22.9L-25.55,17.5L-20.9,14.85L-16.25,17.5L-16.25,22.9M-25.55,17.5L-30.2,14.85L-30.2,9.45L-25.55,6.75L-20.9,9.45L-20.9,14.85M-25.55,6.75L-25.55,1.35L-20.9,-1.35L-16.25,1.35L-16.25,6.75L-20.9,9.45M-30.2,14.85L-34.85,17.5M-34.85,6.75L-30.2,9.45M-6.95,17.5L-11.6,14.85L-11.6,9.45L-6.95,6.75L-2.3,9.45L-2.3,14.85L-6.95,17.5L-6.95,22.9L-11.6,25.6M-11.6,14.85L-16.25,17.5M-16.25,6.75L-11.6,9.45M-16.25,1.35L-11.6,-1.35L-6.95,1.35L-6.95,6.75M-6.95,22.9L-2.3,25.6M-30.2,25.6L-25.55,22.9M-16.25,39.1L-20.9,41.8M-67.45,47.2L-72.1,49.85M-2.3,47.2L-6.95,49.85M-34.85,49.85L-39.55,47.2M-16.25,49.85L-20.9,47.2M-81.4,39.1L-76.75,41.8M-11.6,-1.35L-11.6,-6.75L-6.95,-9.45L-2.3,-6.75M-11.6,-6.75L-16.25,-9.45L-16.25,-14.85L-11.6,-17.5L-6.95,-14.85L-6.95,-9.45M-16.25,-14.85L-20.9,-17.5L-20.9,-22.9L-16.25,-25.6L-11.6,-22.9L-11.6,-17.5M-2.3,-17.5L-6.95,-14.85M-20.9,-1.35L-20.9,-6.75L-16.25,-9.45M-20.9,-6.75L-25.55,-9.45L-25.55,-14.85L-20.9,-17.5M-25.55,-9.45L-30.2,-6.75L-34.85,-9.45L-34.85,-14.85L-30.2,-17.5L-25.55,-14.85M-30.2,-6.75L-30.2,-1.35L-34.85,1.35M-39.55,-1.35L-39.55,-6.75L-34.85,-9.45M-34.85,-14.85L-39.55,-17.5L-39.55,-22.9L-34.85,-25.6L-30.2,-22.9L-30.2,-17.5M-30.2,-33.7L-30.2,-39.1L-25.55,-41.8L-20.9,-39.1L-20.9,-33.7L-25.55,-31L-30.2,-33.7L-34.85,-31L-39.55,-33.7L-39.55,-39.1L-34.85,-41.8L-30.2,-39.1M-20.9,-22.9L-25.55,-25.6L-25.55,-31M-34.85,-25.6L-34.85,-31M-39.55,-39.1L-44.2,-41.8L-44.2,-47.2L-39.55,-49.85L-34.85,-47.2L-34.85,-41.8M-25.55,-41.8L-25.55,-47.2L-20.9,-49.85L-16.25,-47.2L-16.25,-41.8L-20.9,-39.1M-6.95,-31L-11.6,-33.7L-11.6,-39.1L-6.95,-41.8L-2.3,-39.1L-2.3,-33.7L-6.95,-31L-6.95,-25.6L-11.6,-22.9M-16.25,-25.6L-16.25,-31L-11.6,-33.7M-16.25,-41.8L-11.6,-39.1M-16.25,-47.2L-11.6,-49.85L-6.95,-47.2L-6.95,-41.8M-30.2,-22.9L-25.55,-25.6M-16.25,-31L-20.9,-33.7M-6.95,-25.6L-2.3,-22.9M-44.2,1.35L-48.85,-1.35L-48.85,-6.75L-44.2,-9.45L-39.55,-6.75M-58.15,-1.35L-58.15,-6.75L-53.5,-9.45L-48.85,-6.75M-58.15,-6.75L-62.8,-9.45L-62.8,-14.85L-58.15,-17.5L-53.5,-14.85L-53.5,-9.45M-62.8,-14.85L-67.45,-17.5L-67.45,-22.9L-62.8,-25.6L-58.15,-22.9L-58.15,-17.5M-39.55,-17.5L-44.2,-14.85L-48.85,-17.5L-48.85,-22.9L-44.2,-25.6L-39.55,-22.9M-44.2,-9.45L-44.2,-14.85M-53.5,-14.85L-48.85,-17.5M-62.8,1.35L-67.45,-1.35L-67.45,-6.75L-62.8,-9.45M-76.75,-6.75L-81.4,-9.45L-81.4,-14.85L-76.75,-17.5L-72.1,-14.85L-72.1,-9.45L-76.75,-6.75L-76.75,-1.35M-76.75,-17.5L-76.75,-22.9L-72.1,-25.6L-67.45,-22.9M-67.45,-17.5L-72.1,-14.85M-72.1,-9.45L-67.45,-6.75M-67.45,-33.7L-67.45,-39.1L-62.8,-41.8L-58.15,-39.1L-58.15,-33.7L-62.8,-31L-67.45,-33.7ZM-62.8,-25.6L-62.8,-31M-72.1,-25.6L-72.1,-31L-67.45,-33.7M-72.1,-31L-76.75,-33.7L-76.75,-39.1L-72.1,-41.8L-67.45,-39.1M-76.75,-39.1L-81.4,-41.8L-81.4,-47.2L-76.75,-49.85L-72.1,-47.2L-72.1,-41.8M-62.8,-41.8L-62.8,-47.2L-58.15,-49.85L-53.5,-47.2L-53.5,-41.8L-58.15,-39.1M-44.2,-25.6L-44.2,-31L-39.55,-33.7M-44.2,-31L-48.85,-33.7L-48.85,-39.1L-44.2,-41.8M-48.85,-33.7L-53.5,-31L-58.15,-33.7M-48.85,-22.9L-53.5,-25.6L-53.5,-31M-53.5,-41.8L-48.85,-39.1M-58.15,-22.9L-53.5,-25.6M-58.15,-49.85L-58.15,-55.25L-53.5,-57.95L-48.85,-55.25L-48.85,-49.85L-53.5,-47.2M-48.85,-55.25L-44.2,-57.95L-39.55,-55.25L-39.55,-49.85M-58.15,-71.45L-53.5,-74.15L-48.85,-71.45L-48.85,-66.05L-53.5,-63.35L-58.15,-66.05L-58.15,-71.45ZM-48.85,-71.45L-44.2,-74.15L-39.55,-71.45L-39.55,-66.05L-44.2,-63.35L-48.85,-66.05M-44.2,-57.95L-44.2,-63.35M-53.5,-57.95L-53.5,-63.35M-76.75,-49.85L-76.75,-55.25L-72.1,-57.95L-67.45,-55.25L-67.45,-49.85L-72.1,-47.2M-67.45,-55.25L-62.8,-57.95L-58.15,-55.25M-76.75,-55.25L-81.4,-57.95L-81.4,-63.35L-76.75,-66.05L-72.1,-63.35L-72.1,-57.95M-81.4,-63.35L-86.1,-66.05L-86.1,-71.45L-81.4,-74.15L-76.75,-71.45L-76.75,-66.05M-81.4,-74.15L-81.4,-79.55L-76.75,-82.2L-72.1,-79.55L-72.1,-74.15L-76.75,-71.45M-58.15,-66.05L-62.8,-63.35L-67.45,-66.05L-67.45,-71.45L-62.8,-74.15L-58.15,-71.45M-62.8,-57.95L-62.8,-63.35M-72.1,-74.15L-67.45,-71.45M-67.45,-66.05L-72.1,-63.35M-67.45,-82.2L-67.45,-87.6L-62.8,-90.3L-58.15,-87.6L-58.15,-82.2L-62.8,-79.55L-67.45,-82.2L-72.1,-79.55M-76.75,-82.2L-76.75,-87.6L-72.1,-90.3L-67.45,-87.6M-72.1,-90.3L-72.1,-95.7M-62.8,-90.3L-62.8,-95.7M-53.5,-74.15L-53.5,-79.55L-48.85,-82.2L-44.2,-79.55L-44.2,-74.15M-58.15,-82.2L-53.5,-79.55M-58.15,-87.6L-53.5,-90.3L-48.85,-87.6L-48.85,-82.2M-53.5,-90.3L-53.5,-95.7M-44.2,-95.7L-44.2,-90.3L-48.85,-87.6M-62.8,-74.15L-62.8,-79.55M-11.6,-49.85L-11.6,-55.25L-6.95,-57.95L-2.3,-55.25M-20.9,-49.85L-20.9,-55.25L-16.25,-57.95L-11.6,-55.25M-16.25,-63.35L-20.9,-66.05L-20.9,-71.45L-16.25,-74.15L-11.6,-71.45L-11.6,-66.05L-16.25,-63.35L-16.25,-57.95M-2.3,-66.05L-6.95,-63.35L-11.6,-66.05M-11.6,-71.45L-6.95,-74.15L-2.3,-71.45M-6.95,-63.35L-6.95,-57.95M-25.55,-47.2L-30.2,-49.85L-30.2,-55.25L-25.55,-57.95L-20.9,-55.25M-39.55,-55.25L-34.85,-57.95L-30.2,-55.25M-39.55,-71.45L-34.85,-74.15L-30.2,-71.45L-30.2,-66.05L-34.85,-63.35L-39.55,-66.05M-20.9,-71.45L-25.55,-74.15L-25.55,-79.55L-20.9,-82.2L-16.25,-79.55L-16.25,-74.15M-20.9,-66.05L-25.55,-63.35L-30.2,-66.05M-25.55,-74.15L-30.2,-71.45M-34.85,-63.35L-34.85,-57.95M-25.55,-57.95L-25.55,-63.35M-34.85,-74.15L-34.85,-79.55L-30.2,-82.2L-25.55,-79.55M-44.2,-79.55L-39.55,-82.2L-34.85,-79.55M-39.55,-82.2L-39.55,-87.6L-34.85,-90.3L-30.2,-87.6L-30.2,-82.2M-34.85,-90.3L-34.85,-95.7M-16.25,-95.7L-16.25,-90.3L-20.9,-87.6L-25.55,-90.3L-25.55,-95.7M-25.55,-90.3L-30.2,-87.6M-20.9,-82.2L-20.9,-87.6M-6.95,-79.55L-11.6,-82.2L-11.6,-87.6L-6.95,-90.3L-2.3,-87.6L-2.3,-82.2L-6.95,-79.55L-6.95,-74.15M-16.25,-79.55L-11.6,-82.2M-11.6,-87.6L-16.25,-90.3M-6.95,-95.7L-6.95,-90.3M-44.2,-90.3L-39.55,-87.6M-62.8,-47.2L-67.45,-49.85M-44.2,-47.2L-48.85,-49.85M-30.2,-49.85L-34.85,-47.2M-2.3,-49.85L-6.95,-47.2M-95.4,-1.35L-95.4,-6.75L-90.75,-9.45L-86.1,-6.75L-86.1,-1.35L-90.75,1.35M-86.1,-6.75L-81.4,-9.45M-100.05,1.35L-104.7,-1.35L-104.7,-6.75L-100.05,-9.45L-95.4,-6.75M-95.4,-17.5L-100.05,-14.85L-104.7,-17.5L-104.7,-22.9L-100.05,-25.6L-95.4,-22.9L-95.4,-17.5ZM-95.4,-22.9L-90.75,-25.6L-86.1,-22.9L-86.1,-17.5L-90.75,-14.85L-95.4,-17.5M-81.4,-14.85L-86.1,-17.5M-100.05,-9.45L-100.05,-14.85M-90.75,-14.85L-90.75,-9.45M-109.35,-9.45L-104.7,-6.75M-104.7,-17.5L-109.35,-14.85M-109.35,-41.8L-104.7,-39.1L-104.7,-33.7L-109.35,-31M-90.75,-25.6L-90.75,-31L-86.1,-33.7L-81.4,-31L-81.4,-25.6L-86.1,-22.9M-100.05,-25.6L-100.05,-31L-95.4,-33.7L-90.75,-31M-100.05,-47.2L-95.4,-49.85L-90.75,-47.2L-90.75,-41.8L-95.4,-39.1L-100.05,-41.8L-100.05,-47.2L-104.7,-49.85M-90.75,-41.8L-86.1,-39.1L-86.1,-33.7M-86.1,-39.1L-81.4,-41.8M-95.4,-33.7L-95.4,-39.1M-109.35,-25.6L-104.7,-22.9M-100.05,-31L-104.7,-33.7M-104.7,-39.1L-100.05,-41.8M-95.4,-49.85L-95.4,-55.25L-90.75,-57.95L-86.1,-55.25L-86.1,-49.85L-90.75,-47.2M-86.1,-55.25L-81.4,-57.95M-95.4,-55.25L-100.05,-57.95L-100.05,-63.35L-95.4,-66.05L-90.75,-63.35L-90.75,-57.95M-100.05,-63.35L-104.7,-66.05L-104.7,-71.45L-100.05,-74.15L-95.4,-71.45L-95.4,-66.05M-95.4,-71.45L-90.75,-74.15L-86.1,-71.45M-86.1,-66.05L-90.75,-63.35M-109.35,-57.95L-104.7,-55.25L-104.7,-49.85L-109.35,-47.2M-109.35,-74.15L-104.7,-71.45M-104.7,-66.05L-109.35,-63.35M-109.35,-90.3L-104.7,-87.6L-104.7,-82.2L-109.35,-79.55M-81.4,-79.55L-86.1,-82.2L-86.1,-87.6L-81.4,-90.3L-76.75,-87.6M-86.1,-82.2L-90.75,-79.55L-95.4,-82.2L-95.4,-87.6L-90.75,-90.3L-86.1,-87.6M-100.05,-74.15L-100.05,-79.55L-95.4,-82.2M-95.4,-87.6L-100.05,-90.3L-100.05,-95.7M-81.4,-95.7L-81.4,-90.3M-90.75,-95.7L-90.75,-90.3M-90.75,-79.55L-90.75,-74.15M-104.7,-55.25L-100.05,-57.95M-100.05,-79.55L-104.7,-82.2M-104.7,-87.6L-100.05,-90.3M-81.4,-47.2L-86.1,-49.85M-76.75,-33.7L-81.4,-31M-81.4,-25.6L-76.75,-22.9M-67.45,-1.35L-72.1,1.35M-104.7,-1.35L-109.35,1.35M-81.4,1.35L-86.1,-1.35M-25.55,1.35L-30.2,-1.35M-53.5,1.35L-48.85,-1.35M-2.3,-1.35L-6.95,1.35M-2.3,57.95L2.35,55.25M2.35,66.05L-2.3,63.35M-2.3,-39.1L2.35,-41.8M2.35,-31L-2.3,-33.7M2.35,-79.55L-2.3,-82.2M-2.3,-87.6L2.35,-90.3M-2.3,9.45L2.35,6.75M2.35,17.5L-2.3,14.85" style="fill:none;stroke:rgb(152,152,152);stroke-width:0.5px;"/>
                </g>
                <g>
                    <path d="M217.5,108.95C217.5,138.783 206.967,164.349 185.9,185.65C185.2,186.483 184.416,187.25 183.549,187.95C180.083,191.349 176.415,194.433 172.549,197.2C154.282,210.667 133.183,217.4 109.249,217.4C85.282,217.4 64.216,210.667 46.049,197.2C41.249,193.8 36.749,189.95 32.549,185.65C16.182,169.383 6.132,150.483 2.399,128.95C1.666,124.75 1.182,120.483 0.949,116.15C0.849,113.75 0.799,111.349 0.799,108.95C0.799,106.416 0.849,104 0.949,101.7C0.949,101.467 1.015,101.233 1.149,101C2.716,74.4 13.182,51.417 32.549,32.05C53.85,11.017 79.417,0.5 109.25,0.5C139.184,0.5 164.733,11.017 185.9,32.05C206.967,53.483 217.5,79.117 217.5,108.95" style="fill:rgb(239,238,238);"/>
                </g>
                <g>
                    <path d="M195.45,43L173.05,65.4C164.217,78.4 159.8,93.267 159.8,110C159.8,127.934 164.867,143.833 175,157.7L194,176.65C191.5,179.716 188.8,182.716 185.9,185.65C185.2,186.483 184.416,187.25 183.549,187.95C181.016,190.45 178.382,192.766 175.65,194.9L158.1,177.35C144.166,166.617 127.967,161.25 109.5,161.25C91.567,161.25 75.667,166.35 61.8,176.55L43.25,195.15C39.483,192.283 35.917,189.116 32.55,185.65C29.75,182.849 27.133,179.983 24.7,177.049L43.85,157.849C53.916,143.883 58.95,127.933 58.95,109.999C58.95,92.499 54.083,76.982 44.35,63.449L23.3,42.449C26.133,38.849 29.217,35.382 32.55,32.049C35.484,29.182 38.484,26.499 41.55,23.999L61.9,44.35C75.7,54.583 91.567,59.7 109.5,59.7C127.967,59.7 144.166,54.333 158.1,43.6L177.4,24.35C180.299,26.717 183.132,29.283 185.9,32.05C189.367,35.583 192.55,39.233 195.45,43" style="fill:rgb(1,1,1);"/>
                </g>
                <g>
                    <g>
                        <clipPath id="_clip2">
                            <path d="M159.8,110C159.8,93.267 164.217,78.4 173.05,65.4L195.45,43C192.55,39.233 189.367,35.583 185.9,32.05C183.132,29.283 180.299,26.717 177.4,24.35L158.1,43.6C144.166,54.333 127.967,59.7 109.5,59.7C91.567,59.7 75.7,54.583 61.9,44.35L41.55,24C38.484,26.5 35.484,29.183 32.55,32.05C29.217,35.383 26.133,38.85 23.3,42.45L44.35,63.45C54.083,76.983 58.95,92.5 58.95,110C58.95,127.934 53.916,143.884 43.85,157.85L24.7,177.05C27.133,179.984 29.75,182.85 32.55,185.651C35.917,189.117 39.484,192.284 43.25,195.151L61.8,176.55C75.667,166.35 91.567,161.25 109.5,161.25C127.967,161.25 144.166,166.616 158.1,177.35L175.65,194.9C178.382,192.766 181.016,190.45 183.549,187.95C184.415,187.25 185.199,186.483 185.9,185.65C188.799,182.716 191.5,179.716 194,176.65L175,157.7C164.867,143.833 159.8,127.934 159.8,110"/>
                        </clipPath>
                        <g clip-path="url(#_clip2)">
                            <g id="_01" serif:id="0" transform="matrix(1.1415,0,0,-1.1415,-24.9164,220.321)">
                                <path d="M72.15,90.3L76.85,87.6L81.5,90.3L81.5,95.7L76.85,98.4L72.15,95.7L72.15,90.3ZM62.85,95.7L58.2,98.4L53.55,95.7L53.55,90.3L58.2,87.6L62.85,90.3L62.85,95.7L67.5,98.4L72.15,95.7M62.85,90.3L67.5,87.6L72.15,90.3M62.85,79.55L62.85,74.15L67.5,71.45L72.15,74.15L72.15,79.55L67.5,82.2L62.85,79.55L58.2,82.2L53.55,79.55M72.15,74.15L76.85,71.45L81.5,74.15L81.5,79.55L76.85,82.2L72.15,79.55M76.85,87.6L76.85,82.2M67.5,87.6L67.5,82.2M81.5,95.7L86.15,98.4L90.8,95.7L95.45,98.4L100.1,95.7L104.75,98.4L109.4,95.7L109.4,90.3L114.05,87.6L114.05,82.2L109.4,79.55L109.4,74.15L114.05,71.45L114.05,66.05L109.4,63.35L109.4,57.95L114.05,55.25L114.05,49.85L109.4,47.2L109.4,41.8L114.05,39.1L114.05,33.7L109.4,31L109.4,25.6L114.05,22.9L114.05,17.5L109.4,14.85L109.4,9.45L114.05,6.75L114.05,1.35L109.4,-1.35L109.4,-6.75L114.05,-9.45L114.05,-14.85L109.4,-17.5L109.4,-22.9L114.05,-25.6L114.05,-31L109.4,-33.7L109.4,-39.1L114.05,-41.8L114.05,-47.2L109.4,-49.85L109.4,-55.25L114.05,-57.95L114.05,-63.35L109.4,-66.05L109.4,-71.45L114.05,-74.15L114.05,-79.55L109.4,-82.2L109.4,-87.6L114.05,-90.3L114.05,-95.7L109.4,-98.4L104.75,-95.7L100.1,-98.4L95.45,-95.7L90.8,-98.4L86.15,-95.7L81.5,-98.4L76.85,-95.7L72.15,-98.4L67.5,-95.7L62.85,-98.4L58.2,-95.7L53.55,-98.4L48.9,-95.7L44.25,-98.4L39.6,-95.7L34.95,-98.4L30.3,-95.7L25.6,-98.4L20.95,-95.7L16.3,-98.4L11.65,-95.7L7,-98.4L2.35,-95.7L-2.3,-98.4L-6.95,-95.7L-11.6,-98.4L-16.25,-95.7L-20.9,-98.4L-25.55,-95.7L-30.2,-98.4L-34.85,-95.7L-39.55,-98.4L-44.2,-95.7L-48.85,-98.4L-53.5,-95.7L-58.15,-98.4L-62.8,-95.7L-67.45,-98.4L-72.1,-95.7L-76.75,-98.4L-81.4,-95.7L-86.1,-98.4L-90.75,-95.7L-95.4,-98.4L-100.05,-95.7L-104.7,-98.4L-109.35,-95.7L-109.35,-90.3L-114,-87.6L-114,-82.2L-109.35,-79.55L-109.35,-74.15L-114,-71.45L-114,-66.05L-109.35,-63.35L-109.35,-57.95L-114,-55.25L-114,-49.85L-109.35,-47.2L-109.35,-41.8L-114,-39.1L-114,-33.7L-109.35,-31L-109.35,-25.6L-114,-22.9L-114,-17.5L-109.35,-14.85L-109.35,-9.45L-114,-6.75L-114,-1.35L-109.35,1.35L-109.35,6.75L-114,9.45L-114,14.85L-109.35,17.5L-109.35,22.9L-114,25.6L-114,31L-109.35,33.7L-109.35,39.1L-114,41.8L-114,47.2L-109.35,49.85L-109.35,55.25L-114,57.95L-114,63.35L-109.35,66.05L-109.35,71.45L-114,74.15L-114,79.55L-109.35,82.2L-109.35,87.6L-114,90.3L-114,95.7L-109.35,98.4L-104.7,95.7L-100.05,98.4L-95.4,95.7L-90.75,98.4L-86.1,95.7L-81.4,98.4L-76.75,95.7L-72.1,98.4L-67.45,95.7L-62.8,98.4L-58.15,95.7L-53.5,98.4L-48.85,95.7L-44.2,98.4L-39.55,95.7L-34.85,98.4L-30.2,95.7L-25.55,98.4L-20.9,95.7L-16.25,98.4L-11.6,95.7L-6.95,98.4L-2.3,95.7L2.35,98.4L7,95.7L11.65,98.4L16.3,95.7L20.95,98.4L25.6,95.7L30.3,98.4L34.95,95.7L39.6,98.4L44.25,95.7L48.9,98.4L53.55,95.7M44.25,95.7L44.25,90.3L48.9,87.6L53.55,90.3M44.25,79.55L44.25,74.15L48.9,71.45L53.55,74.15L53.55,79.55L48.9,82.2L44.25,79.55L39.6,82.2L34.95,79.55M58.2,87.6L58.2,82.2M48.9,87.6L48.9,82.2M53.55,63.35L53.55,57.95L58.2,55.25L62.85,57.95L62.85,63.35L58.2,66.05L53.55,63.35L48.9,66.05L44.25,63.35L44.25,57.95L48.9,55.25L53.55,57.95M62.85,74.15L58.2,71.45L58.2,66.05M53.55,74.15L58.2,71.45M48.9,71.45L48.9,66.05M48.9,55.25L48.9,49.85L53.55,47.2L58.2,49.85L58.2,55.25M67.5,71.45L67.5,66.05L72.15,63.35L76.85,66.05L76.85,71.45M67.5,66.05L62.85,63.35M58.2,49.85L62.85,47.2L67.5,49.85L67.5,55.25L62.85,57.95M72.15,63.35L72.15,57.95L76.85,55.25L81.5,57.95L81.5,63.35L76.85,66.05M76.85,55.25L76.85,49.85L81.5,47.2L86.15,49.85L86.15,55.25L81.5,57.95M67.5,55.25L72.15,57.95M34.95,95.7L34.95,90.3L39.6,87.6L44.25,90.3M16.3,95.7L16.3,90.3L20.95,87.6L25.6,90.3L25.6,95.7M25.6,90.3L30.3,87.6L34.95,90.3M25.6,79.55L25.6,74.15L30.3,71.45L34.95,74.15L34.95,79.55L30.3,82.2L25.6,79.55L20.95,82.2L16.3,79.55L16.3,74.15L20.95,71.45L25.6,74.15M20.95,87.6L20.95,82.2M39.6,87.6L39.6,82.2M30.3,87.6L30.3,82.2M7,95.7L7,90.3L11.65,87.6L16.3,90.3M-2.3,95.7L-2.3,90.3L2.35,87.6L7,90.3M2.35,82.2L-2.3,79.55L-2.3,74.15L2.35,71.45L7,74.15L7,79.55L2.35,82.2ZM16.3,79.55L11.65,82.2L7,79.55M2.35,87.6L2.35,82.2M11.65,87.6L11.65,82.2M16.3,74.15L11.65,71.45L11.65,66.05L16.3,63.35L20.95,66.05L20.95,71.45M2.35,71.45L2.35,66.05L7,63.35L11.65,66.05M2.35,49.85L7,47.2L11.65,49.85L11.65,55.25L7,57.95L2.35,55.25L2.35,49.85L-2.3,47.2L-2.3,41.8L2.35,39.1L7,41.8L7,47.2M11.65,55.25L16.3,57.95L16.3,63.35M7,74.15L11.65,71.45M7,57.95L7,63.35M30.3,71.45L30.3,66.05L34.95,63.35L39.6,66.05L39.6,71.45L34.95,74.15M16.3,57.95L20.95,55.25L25.6,57.95L25.6,63.35L20.95,66.05M30.3,66.05L25.6,63.35M30.3,49.85L34.95,47.2L39.6,49.85L39.6,55.25L34.95,57.95L30.3,55.25L30.3,49.85L25.6,47.2L25.6,41.8L20.95,39.1L20.95,33.7L25.6,31L30.3,33.7L30.3,39.1L25.6,41.8M11.65,49.85L16.3,47.2L20.95,49.85L20.95,55.25M25.6,57.95L30.3,55.25M34.95,57.95L34.95,63.35M34.95,47.2L34.95,41.8L39.6,39.1L44.25,41.8L44.25,47.2L39.6,49.85M25.6,31L25.6,25.6L30.3,22.9L34.95,25.6L34.95,31L30.3,33.7M34.95,25.6L39.6,22.9L44.25,25.6L44.25,31L39.6,33.7L34.95,31M30.3,39.1L34.95,41.8M39.6,39.1L39.6,33.7M20.95,39.1L16.3,41.8L11.65,39.1L11.65,33.7L16.3,31L20.95,33.7M16.3,41.8L16.3,47.2M2.35,33.7L-2.3,31L-2.3,25.6L2.35,22.9L7,25.6L7,31L2.35,33.7ZM7,25.6L11.65,22.9L16.3,25.6L16.3,31M2.35,39.1L2.35,33.7M11.65,33.7L7,31M7,41.8L11.65,39.1M11.65,17.5L7,14.85L7,9.45L11.65,6.75L16.3,9.45L16.3,14.85L11.65,17.5ZM11.65,22.9L11.65,17.5M2.35,22.9L2.35,17.5L7,14.85M7,9.45L2.35,6.75L2.35,1.35L7,-1.35L11.65,1.35L11.65,6.75M34.95,14.85L34.95,9.45L39.6,6.75L44.25,9.45L44.25,14.85L39.6,17.5L34.95,14.85ZM39.6,22.9L39.6,17.5M25.6,25.6L20.95,22.9L20.95,17.5L25.6,14.85L30.3,17.5L30.3,22.9M16.3,9.45L20.95,6.75L25.6,9.45L25.6,14.85M34.95,9.45L30.3,6.75L30.3,1.35L34.95,-1.35L39.6,1.35L39.6,6.75M11.65,1.35L16.3,-1.35L20.95,1.35L20.95,6.75M25.6,9.45L30.3,6.75M30.3,17.5L34.95,14.85M16.3,25.6L20.95,22.9M20.95,17.5L16.3,14.85M76.85,49.85L72.15,47.2L72.15,41.8L76.85,39.1L81.5,41.8L81.5,47.2M62.85,47.2L62.85,41.8L67.5,39.1L72.15,41.8M62.85,25.6L67.5,22.9L72.15,25.6L72.15,31L67.5,33.7L62.85,31L62.85,25.6L58.2,22.9L58.2,17.5M72.15,25.6L76.85,22.9L81.5,25.6L81.5,31L76.85,33.7L72.15,31M76.85,39.1L76.85,33.7M67.5,39.1L67.5,33.7M53.55,47.2L53.55,41.8L58.2,39.1L62.85,41.8M44.25,41.8L48.9,39.1L53.55,41.8M44.25,25.6L48.9,22.9L53.55,25.6L53.55,31L48.9,33.7L44.25,31M62.85,31L58.2,33.7L53.55,31M58.2,39.1L58.2,33.7M48.9,39.1L48.9,33.7M53.55,14.85L53.55,9.45L58.2,6.75L62.85,9.45L62.85,14.85L58.2,17.5L53.55,14.85L48.9,17.5L44.25,14.85M48.9,22.9L48.9,17.5M53.55,9.45L48.9,6.75L48.9,1.35L53.55,-1.35L58.2,1.35L58.2,6.75M44.25,9.45L48.9,6.75M76.85,22.9L76.85,17.5L81.5,14.85L86.15,17.5L86.15,22.9L81.5,25.6M76.85,17.5L72.15,14.85L72.15,9.45L76.85,6.75L81.5,9.45L81.5,14.85M67.5,22.9L67.5,17.5L72.15,14.85M67.5,17.5L62.85,14.85M72.15,9.45L67.5,6.75L67.5,1.35L72.15,-1.35L76.85,1.35L76.85,6.75M62.85,9.45L67.5,6.75M53.55,25.6L58.2,22.9M44.25,63.35L39.6,66.05M39.6,55.25L44.25,57.95M39.6,71.45L44.25,74.15M67.5,49.85L72.15,47.2M48.9,49.85L44.25,47.2M25.6,47.2L20.95,49.85M104.75,87.6L100.1,90.3L95.45,87.6L95.45,82.2L100.1,79.55L104.75,82.2L104.75,87.6L109.4,90.3M109.4,79.55L104.75,82.2M100.1,95.7L100.1,90.3M81.5,90.3L86.15,87.6L90.8,90.3L90.8,95.7M81.5,74.15L86.15,71.45L90.8,74.15L90.8,79.55L86.15,82.2L81.5,79.55M90.8,79.55L95.45,82.2M86.15,87.6L86.15,82.2M90.8,90.3L95.45,87.6M95.45,71.45L95.45,66.05L100.1,63.35L104.75,66.05L104.75,71.45L100.1,74.15L95.45,71.45L90.8,74.15M86.15,55.25L90.8,57.95L90.8,63.35L86.15,66.05L81.5,63.35M86.15,71.45L86.15,66.05M95.45,55.25L95.45,49.85L100.1,47.2L104.75,49.85L104.75,55.25L100.1,57.95L95.45,55.25L90.8,57.95M100.1,63.35L100.1,57.95M90.8,63.35L95.45,66.05M109.4,63.35L104.75,66.05M104.75,71.45L109.4,74.15M104.75,55.25L109.4,57.95M100.1,79.55L100.1,74.15M100.1,47.2L100.1,41.8L104.75,39.1L109.4,41.8M100.1,41.8L95.45,39.1L95.45,33.7L100.1,31L104.75,33.7L104.75,39.1M109.4,31L104.75,33.7M81.5,41.8L86.15,39.1L90.8,41.8L90.8,47.2L86.15,49.85M86.15,22.9L90.8,25.6L90.8,31L86.15,33.7L81.5,31M100.1,31L100.1,25.6L104.75,22.9L109.4,25.6M90.8,31L95.45,33.7M86.15,39.1L86.15,33.7M90.8,41.8L95.45,39.1M86.15,17.5L90.8,14.85L95.45,17.5L95.45,22.9L90.8,25.6M90.8,14.85L90.8,9.45L95.45,6.75L100.1,9.45L100.1,14.85L95.45,17.5M81.5,9.45L86.15,6.75L90.8,9.45M86.15,6.75L86.15,1.35L90.8,-1.35L95.45,1.35L95.45,6.75M100.1,14.85L104.75,17.5L104.75,22.9M109.4,14.85L104.75,17.5M100.1,9.45L104.75,6.75L109.4,9.45M95.45,1.35L100.1,-1.35L104.75,1.35L104.75,6.75M95.45,22.9L100.1,25.6M109.4,47.2L104.75,49.85M90.8,47.2L95.45,49.85M104.75,-9.45L100.1,-6.75L95.45,-9.45L95.45,-14.85L100.1,-17.5L104.75,-14.85L104.75,-9.45L109.4,-6.75M109.4,-17.5L104.75,-14.85M100.1,-1.35L100.1,-6.75M90.8,-1.35L90.8,-6.75L95.45,-9.45M81.5,-6.75L76.85,-9.45L76.85,-14.85L81.5,-17.5L86.15,-14.85L86.15,-9.45L81.5,-6.75L81.5,-1.35L76.85,1.35M90.8,-6.75L86.15,-9.45M95.45,-14.85L90.8,-17.5L90.8,-22.9L95.45,-25.6L100.1,-22.9L100.1,-17.5M76.85,-14.85L72.15,-17.5L72.15,-22.9L76.85,-25.6L81.5,-22.9L81.5,-17.5M86.15,-14.85L90.8,-17.5M95.45,-31L90.8,-33.7L90.8,-39.1L95.45,-41.8L100.1,-39.1L100.1,-33.7L95.45,-31ZM95.45,-25.6L95.45,-31M90.8,-22.9L86.15,-25.6L86.15,-31L90.8,-33.7M86.15,-31L81.5,-33.7L81.5,-39.1L86.15,-41.8L90.8,-39.1M86.15,-41.8L86.15,-47.2L90.8,-49.85L95.45,-47.2L95.45,-41.8M100.1,-33.7L104.75,-31L104.75,-25.6L100.1,-22.9M109.4,-33.7L104.75,-31M95.45,-47.2L100.1,-49.85L104.75,-47.2L104.75,-41.8L100.1,-39.1M104.75,-41.8L109.4,-39.1M81.5,-22.9L86.15,-25.6M104.75,-25.6L109.4,-22.9M100.1,-49.85L100.1,-55.25L104.75,-57.95L109.4,-55.25M109.4,-66.05L104.75,-63.35L100.1,-66.05L100.1,-71.45L104.75,-74.15L109.4,-71.45M104.75,-63.35L104.75,-57.95M100.1,-55.25L95.45,-57.95L95.45,-63.35L100.1,-66.05M86.15,-47.2L81.5,-49.85L81.5,-55.25L86.15,-57.95L90.8,-55.25L90.8,-49.85M86.15,-74.15L90.8,-71.45L90.8,-66.05L86.15,-63.35L81.5,-66.05L81.5,-71.45L86.15,-74.15L86.15,-79.55L90.8,-82.2L95.45,-79.55M90.8,-71.45L95.45,-74.15L100.1,-71.45M95.45,-63.35L90.8,-66.05M90.8,-55.25L95.45,-57.95M86.15,-57.95L86.15,-63.35M95.45,-74.15L95.45,-79.55L100.1,-82.2L104.75,-79.55L104.75,-74.15M81.5,-71.45L76.85,-74.15L76.85,-79.55L81.5,-82.2L86.15,-79.55M81.5,-82.2L81.5,-87.6L86.15,-90.3L90.8,-87.6L90.8,-82.2M86.15,-90.3L86.15,-95.7M104.75,-95.7L104.75,-90.3L100.1,-87.6L95.45,-90.3L95.45,-95.7M100.1,-82.2L100.1,-87.6M95.45,-90.3L90.8,-87.6M109.4,-82.2L104.75,-79.55M104.75,-90.3L109.4,-87.6M109.4,-49.85L104.75,-47.2M72.15,-1.35L72.15,-6.75L76.85,-9.45M67.5,1.35L62.85,-1.35L62.85,-6.75L67.5,-9.45L72.15,-6.75M72.15,-17.5L67.5,-14.85L62.85,-17.5L62.85,-22.9L67.5,-25.6L72.15,-22.9M67.5,-14.85L67.5,-9.45M53.55,-1.35L53.55,-6.75L58.2,-9.45L62.85,-6.75M48.9,1.35L44.25,-1.35L44.25,-6.75L48.9,-9.45L53.55,-6.75M44.25,-22.9L48.9,-25.6L53.55,-22.9L53.55,-17.5L48.9,-14.85L44.25,-17.5L44.25,-22.9L39.6,-25.6L39.6,-31M53.55,-17.5L58.2,-14.85L58.2,-9.45M48.9,-9.45L48.9,-14.85M53.55,-33.7L53.55,-39.1L58.2,-41.8L62.85,-39.1L62.85,-33.7L58.2,-31L53.55,-33.7ZM62.85,-22.9L58.2,-25.6L58.2,-31M48.9,-25.6L48.9,-31L53.55,-33.7M48.9,-31L44.25,-33.7L44.25,-39.1L48.9,-41.8L53.55,-39.1M48.9,-41.8L48.9,-47.2L53.55,-49.85L58.2,-47.2L58.2,-41.8M76.85,-25.6L76.85,-31L81.5,-33.7M76.85,-31L72.15,-33.7L72.15,-39.1L76.85,-41.8L81.5,-39.1M62.85,-33.7L67.5,-31L67.5,-25.6M72.15,-39.1L67.5,-41.8L67.5,-47.2L72.15,-49.85L76.85,-47.2L76.85,-41.8M62.85,-39.1L67.5,-41.8M72.15,-33.7L67.5,-31M53.55,-22.9L58.2,-25.6M58.2,-14.85L62.85,-17.5M30.3,1.35L25.6,-1.35L25.6,-6.75L30.3,-9.45L34.95,-6.75L34.95,-1.35M30.3,-9.45L30.3,-14.85L34.95,-17.5L39.6,-14.85L39.6,-9.45L34.95,-6.75M16.3,-1.35L16.3,-6.75L20.95,-9.45L25.6,-6.75M30.3,-14.85L25.6,-17.5L25.6,-22.9L30.3,-25.6L34.95,-22.9L34.95,-17.5M25.6,-17.5L20.95,-14.85L16.3,-17.5L16.3,-22.9L20.95,-25.6L25.6,-22.9M20.95,-14.85L20.95,-9.45M16.3,-6.75L11.65,-9.45L11.65,-14.85L16.3,-17.5M2.35,1.35L-2.3,-1.35L-2.3,-6.75L2.35,-9.45L7,-6.75L7,-1.35M7,-17.5L2.35,-14.85L-2.3,-17.5L-2.3,-22.9L2.35,-25.6L7,-22.9L7,-17.5L11.65,-14.85M11.65,-9.45L7,-6.75M2.35,-9.45L2.35,-14.85M11.65,-31L7,-33.7L7,-39.1L11.65,-41.8L16.3,-39.1L16.3,-33.7L11.65,-31ZM16.3,-22.9L11.65,-25.6L11.65,-31M2.35,-25.6L2.35,-31L7,-33.7M7,-39.1L2.35,-41.8L2.35,-47.2L7,-49.85L11.65,-47.2L11.65,-41.8M44.25,-33.7L39.6,-31L34.95,-33.7L34.95,-39.1L39.6,-41.8L44.25,-39.1M20.95,-25.6L20.95,-31L25.6,-33.7L30.3,-31L30.3,-25.6M20.95,-47.2L25.6,-49.85L30.3,-47.2L30.3,-41.8L25.6,-39.1L20.95,-41.8L20.95,-47.2L16.3,-49.85L16.3,-55.25L20.95,-57.95L25.6,-55.25M30.3,-47.2L34.95,-49.85L39.6,-47.2L39.6,-41.8M30.3,-41.8L34.95,-39.1M25.6,-33.7L25.6,-39.1M34.95,-33.7L30.3,-31M34.95,-22.9L39.6,-25.6M20.95,-31L16.3,-33.7M16.3,-39.1L20.95,-41.8M7,-22.9L11.65,-25.6M34.95,-55.25L30.3,-57.95L30.3,-63.35L34.95,-66.05L39.6,-63.35L39.6,-57.95L34.95,-55.25L34.95,-49.85M25.6,-49.85L25.6,-55.25L30.3,-57.95M30.3,-63.35L25.6,-66.05L25.6,-71.45L30.3,-74.15L34.95,-71.45L34.95,-66.05M25.6,-66.05L20.95,-63.35L16.3,-66.05L16.3,-71.45L20.95,-74.15L25.6,-71.45M30.3,-74.15L30.3,-79.55L34.95,-82.2L39.6,-79.55L39.6,-74.15L34.95,-71.45M20.95,-63.35L20.95,-57.95M7,-49.85L7,-55.25L11.65,-57.95L16.3,-55.25M2.35,-47.2L-2.3,-49.85L-2.3,-55.25L2.35,-57.95L7,-55.25M2.35,-63.35L-2.3,-66.05L-2.3,-71.45L2.35,-74.15L7,-71.45L7,-66.05L2.35,-63.35ZM16.3,-71.45L11.65,-74.15L11.65,-79.55L16.3,-82.2L20.95,-79.55L20.95,-74.15M11.65,-57.95L11.65,-63.35L16.3,-66.05M2.35,-57.95L2.35,-63.35M7,-66.05L11.65,-63.35M11.65,-74.15L7,-71.45M2.35,-74.15L2.35,-79.55L7,-82.2L11.65,-79.55M11.65,-95.7L11.65,-90.3L7,-87.6L2.35,-90.3L2.35,-95.7M20.95,-95.7L20.95,-90.3L16.3,-87.6L11.65,-90.3M7,-87.6L7,-82.2M16.3,-87.6L16.3,-82.2M20.95,-90.3L25.6,-87.6L25.6,-82.2L20.95,-79.55M30.3,-79.55L25.6,-82.2M30.3,-95.7L30.3,-90.3L25.6,-87.6M48.9,-95.7L48.9,-90.3L44.25,-87.6L39.6,-90.3L39.6,-95.7M34.95,-82.2L34.95,-87.6L39.6,-90.3M30.3,-90.3L34.95,-87.6M72.15,-49.85L72.15,-55.25L76.85,-57.95L81.5,-55.25M67.5,-47.2L62.85,-49.85L62.85,-55.25L67.5,-57.95L72.15,-55.25M67.5,-74.15L72.15,-71.45L72.15,-66.05L67.5,-63.35L62.85,-66.05L62.85,-71.45L67.5,-74.15L67.5,-79.55L72.15,-82.2L76.85,-79.55M81.5,-66.05L76.85,-63.35L72.15,-66.05M72.15,-71.45L76.85,-74.15M76.85,-63.35L76.85,-57.95M67.5,-57.95L67.5,-63.35M53.55,-49.85L53.55,-55.25L58.2,-57.95L62.85,-55.25M48.9,-47.2L44.25,-49.85L44.25,-55.25L48.9,-57.95L53.55,-55.25M44.25,-66.05L44.25,-71.45L48.9,-74.15L53.55,-71.45L53.55,-66.05L48.9,-63.35L44.25,-66.05L39.6,-63.35M62.85,-66.05L58.2,-63.35L53.55,-66.05M53.55,-71.45L58.2,-74.15L62.85,-71.45M58.2,-57.95L58.2,-63.35M48.9,-57.95L48.9,-63.35M48.9,-74.15L48.9,-79.55L53.55,-82.2L58.2,-79.55L58.2,-74.15M48.9,-79.55L44.25,-82.2L44.25,-87.6M58.2,-95.7L58.2,-90.3L53.55,-87.6L48.9,-90.3M53.55,-87.6L53.55,-82.2M58.2,-79.55L62.85,-82.2L67.5,-79.55M62.85,-82.2L62.85,-87.6L67.5,-90.3L72.15,-87.6L72.15,-82.2M67.5,-90.3L67.5,-95.7M76.85,-95.7L76.85,-90.3L72.15,-87.6M58.2,-90.3L62.85,-87.6M44.25,-17.5L39.6,-14.85M39.6,-9.45L44.25,-6.75M39.6,-74.15L44.25,-71.45M39.6,-57.95L44.25,-55.25M44.25,-49.85L39.6,-47.2M62.85,-49.85L58.2,-47.2M16.3,-49.85L11.65,-47.2M44.25,-82.2L39.6,-79.55M76.85,-90.3L81.5,-87.6M81.5,-49.85L76.85,-47.2M86.15,1.35L81.5,-1.35M44.25,-1.35L39.6,1.35M62.85,-1.35L58.2,1.35M109.4,-1.35L104.75,1.35M25.6,-1.35L20.95,1.35M-95.4,95.7L-95.4,90.3L-90.75,87.6L-86.1,90.3L-86.1,95.7M-86.1,90.3L-81.4,87.6L-76.75,90.3L-76.75,95.7M-104.7,95.7L-104.7,90.3L-100.05,87.6L-95.4,90.3M-100.05,82.2L-104.7,79.55L-104.7,74.15L-100.05,71.45L-95.4,74.15L-95.4,79.55L-100.05,82.2ZM-95.4,74.15L-90.75,71.45L-86.1,74.15L-86.1,79.55L-90.75,82.2L-95.4,79.55M-86.1,74.15L-81.4,71.45L-76.75,74.15L-76.75,79.55L-81.4,82.2L-86.1,79.55M-100.05,87.6L-100.05,82.2M-90.75,87.6L-90.75,82.2M-81.4,87.6L-81.4,82.2M-109.35,87.6L-104.7,90.3M-104.7,79.55L-109.35,82.2M-109.35,55.25L-104.7,57.95L-104.7,63.35L-109.35,66.05M-109.35,71.45L-104.7,74.15M-90.75,66.05L-95.4,63.35L-95.4,57.95L-90.75,55.25L-86.1,57.95L-86.1,63.35L-90.75,66.05L-90.75,71.45M-86.1,57.95L-81.4,55.25L-76.75,57.95L-76.75,63.35L-81.4,66.05L-86.1,63.35M-81.4,71.45L-81.4,66.05M-100.05,71.45L-100.05,66.05L-95.4,63.35M-95.4,57.95L-100.05,55.25L-100.05,49.85L-95.4,47.2L-90.75,49.85L-90.75,55.25M-81.4,55.25L-81.4,49.85L-76.75,47.2L-72.1,49.85L-72.1,55.25L-76.75,57.95M-100.05,66.05L-104.7,63.35M-104.7,57.95L-100.05,55.25M-86.1,41.8L-90.75,39.1L-90.75,33.7L-86.1,31L-81.4,33.7L-81.4,39.1L-86.1,41.8ZM-81.4,49.85L-86.1,47.2L-86.1,41.8M-100.05,49.85L-104.7,47.2L-104.7,41.8L-100.05,39.1L-95.4,41.8L-95.4,47.2M-95.4,31L-100.05,33.7L-104.7,31L-104.7,25.6L-100.05,22.9L-95.4,25.6L-95.4,31L-90.75,33.7M-86.1,31L-86.1,25.6L-81.4,22.9L-76.75,25.6L-76.75,31L-81.4,33.7M-100.05,39.1L-100.05,33.7M-90.75,39.1L-95.4,41.8M-109.35,39.1L-104.7,41.8M-104.7,31L-109.35,33.7M-109.35,6.75L-104.7,9.45L-104.7,14.85L-109.35,17.5M-86.1,14.85L-86.1,9.45L-81.4,6.75L-76.75,9.45L-76.75,14.85L-81.4,17.5L-86.1,14.85ZM-81.4,22.9L-81.4,17.5M-86.1,25.6L-90.75,22.9L-90.75,17.5L-86.1,14.85M-100.05,22.9L-100.05,17.5L-95.4,14.85L-90.75,17.5M-100.05,6.75L-100.05,1.35L-95.4,-1.35L-90.75,1.35L-90.75,6.75L-95.4,9.45L-100.05,6.75ZM-81.4,6.75L-81.4,1.35L-76.75,-1.35L-72.1,1.35L-72.1,6.75L-76.75,9.45M-90.75,6.75L-86.1,9.45M-95.4,14.85L-95.4,9.45M-95.4,25.6L-90.75,22.9M-100.05,17.5L-104.7,14.85M-104.7,9.45L-100.05,6.75M-109.35,22.9L-104.7,25.6M-86.1,47.2L-90.75,49.85M-104.7,47.2L-109.35,49.85M-11.6,95.7L-11.6,90.3L-6.95,87.6L-2.3,90.3M-20.9,95.7L-20.9,90.3L-16.25,87.6L-11.6,90.3M-16.25,82.2L-20.9,79.55L-20.9,74.15L-16.25,71.45L-11.6,74.15L-11.6,79.55L-16.25,82.2L-16.25,87.6M-2.3,79.55L-6.95,82.2L-11.6,79.55M-6.95,82.2L-6.95,87.6M-30.2,95.7L-30.2,90.3L-25.55,87.6L-20.9,90.3M-39.55,95.7L-39.55,90.3L-34.85,87.6L-30.2,90.3M-39.55,79.55L-39.55,74.15L-34.85,71.45L-30.2,74.15L-30.2,79.55L-34.85,82.2L-39.55,79.55L-44.2,82.2L-48.85,79.55M-20.9,79.55L-25.55,82.2L-30.2,79.55M-34.85,87.6L-34.85,82.2M-25.55,87.6L-25.55,82.2M-20.9,74.15L-25.55,71.45L-25.55,66.05L-20.9,63.35L-16.25,66.05L-16.25,71.45M-30.2,74.15L-25.55,71.45M-25.55,66.05L-30.2,63.35L-30.2,57.95L-25.55,55.25L-20.9,57.95L-20.9,63.35M-39.55,74.15L-44.2,71.45L-44.2,66.05L-39.55,63.35L-34.85,66.05L-34.85,71.45M-30.2,57.95L-34.85,55.25L-34.85,49.85L-30.2,47.2L-25.55,49.85L-25.55,55.25M-39.55,63.35L-39.55,57.95L-34.85,55.25M-30.2,63.35L-34.85,66.05M-11.6,74.15L-6.95,71.45L-2.3,74.15M-6.95,66.05L-11.6,63.35L-11.6,57.95L-6.95,55.25L-2.3,57.95L-2.3,63.35L-6.95,66.05L-6.95,71.45M-16.25,66.05L-11.6,63.35M-11.6,57.95L-16.25,55.25L-16.25,49.85L-11.6,47.2L-6.95,49.85L-6.95,55.25M-16.25,55.25L-20.9,57.95M-48.85,95.7L-48.85,90.3L-44.2,87.6L-39.55,90.3M-58.15,95.7L-58.15,90.3L-53.5,87.6L-48.85,90.3M-58.15,79.55L-58.15,74.15L-53.5,71.45L-48.85,74.15L-48.85,79.55L-53.5,82.2L-58.15,79.55L-62.8,82.2L-67.45,79.55M-44.2,87.6L-44.2,82.2M-53.5,87.6L-53.5,82.2M-67.45,95.7L-67.45,90.3L-62.8,87.6L-58.15,90.3M-76.75,90.3L-72.1,87.6L-67.45,90.3M-76.75,74.15L-72.1,71.45L-67.45,74.15L-67.45,79.55L-72.1,82.2L-76.75,79.55M-62.8,87.6L-62.8,82.2M-72.1,87.6L-72.1,82.2M-67.45,74.15L-62.8,71.45L-58.15,74.15M-62.8,71.45L-62.8,66.05L-58.15,63.35L-53.5,66.05L-53.5,71.45M-62.8,66.05L-67.45,63.35L-67.45,57.95L-62.8,55.25L-58.15,57.95L-58.15,63.35M-76.75,63.35L-72.1,66.05L-72.1,71.45M-62.8,55.25L-62.8,49.85L-58.15,47.2L-53.5,49.85L-53.5,55.25L-58.15,57.95M-67.45,63.35L-72.1,66.05M-72.1,55.25L-67.45,57.95M-48.85,74.15L-44.2,71.45M-44.2,66.05L-48.85,63.35L-48.85,57.95L-44.2,55.25L-39.55,57.95M-53.5,49.85L-48.85,47.2L-44.2,49.85L-44.2,55.25M-53.5,66.05L-48.85,63.35M-53.5,55.25L-48.85,57.95M-48.85,47.2L-48.85,41.8L-44.2,39.1L-39.55,41.8L-39.55,47.2L-44.2,49.85M-58.15,47.2L-58.15,41.8L-53.5,39.1L-48.85,41.8M-58.15,25.6L-53.5,22.9L-48.85,25.6L-48.85,31L-53.5,33.7L-58.15,31L-58.15,25.6L-62.8,22.9L-62.8,17.5M-48.85,25.6L-44.2,22.9L-39.55,25.6L-39.55,31L-44.2,33.7L-48.85,31M-44.2,39.1L-44.2,33.7M-53.5,39.1L-53.5,33.7M-62.8,49.85L-67.45,47.2L-67.45,41.8L-62.8,39.1L-58.15,41.8M-76.75,47.2L-76.75,41.8L-72.1,39.1L-67.45,41.8M-76.75,25.6L-72.1,22.9L-67.45,25.6L-67.45,31L-72.1,33.7L-76.75,31M-58.15,31L-62.8,33.7L-67.45,31M-72.1,39.1L-72.1,33.7M-62.8,39.1L-62.8,33.7M-67.45,14.85L-67.45,9.45L-62.8,6.75L-58.15,9.45L-58.15,14.85L-62.8,17.5L-67.45,14.85L-72.1,17.5L-76.75,14.85M-72.1,22.9L-72.1,17.5M-62.8,6.75L-62.8,1.35L-58.15,-1.35L-53.5,1.35L-53.5,6.75L-58.15,9.45M-72.1,6.75L-67.45,9.45M-44.2,22.9L-44.2,17.5L-39.55,14.85L-34.85,17.5L-34.85,22.9L-39.55,25.6M-44.2,17.5L-48.85,14.85L-48.85,9.45L-44.2,6.75L-39.55,9.45L-39.55,14.85M-48.85,14.85L-53.5,17.5L-58.15,14.85M-53.5,22.9L-53.5,17.5M-44.2,6.75L-44.2,1.35L-39.55,-1.35L-34.85,1.35L-34.85,6.75L-39.55,9.45M-53.5,6.75L-48.85,9.45M-67.45,25.6L-62.8,22.9M-11.6,47.2L-11.6,41.8L-6.95,39.1L-2.3,41.8M-11.6,41.8L-16.25,39.1L-16.25,33.7L-11.6,31L-6.95,33.7L-6.95,39.1M-16.25,33.7L-20.9,31L-20.9,25.6L-16.25,22.9L-11.6,25.6L-11.6,31M-2.3,31L-6.95,33.7M-30.2,47.2L-30.2,41.8L-25.55,39.1L-20.9,41.8L-20.9,47.2L-25.55,49.85M-39.55,41.8L-34.85,39.1L-30.2,41.8M-34.85,22.9L-30.2,25.6L-30.2,31L-34.85,33.7L-39.55,31M-20.9,31L-25.55,33.7L-30.2,31M-34.85,39.1L-34.85,33.7M-25.55,39.1L-25.55,33.7M-20.9,25.6L-25.55,22.9L-25.55,17.5L-20.9,14.85L-16.25,17.5L-16.25,22.9M-25.55,17.5L-30.2,14.85L-30.2,9.45L-25.55,6.75L-20.9,9.45L-20.9,14.85M-25.55,6.75L-25.55,1.35L-20.9,-1.35L-16.25,1.35L-16.25,6.75L-20.9,9.45M-30.2,14.85L-34.85,17.5M-34.85,6.75L-30.2,9.45M-6.95,17.5L-11.6,14.85L-11.6,9.45L-6.95,6.75L-2.3,9.45L-2.3,14.85L-6.95,17.5L-6.95,22.9L-11.6,25.6M-11.6,14.85L-16.25,17.5M-16.25,6.75L-11.6,9.45M-16.25,1.35L-11.6,-1.35L-6.95,1.35L-6.95,6.75M-6.95,22.9L-2.3,25.6M-30.2,25.6L-25.55,22.9M-16.25,39.1L-20.9,41.8M-67.45,47.2L-72.1,49.85M-2.3,47.2L-6.95,49.85M-34.85,49.85L-39.55,47.2M-16.25,49.85L-20.9,47.2M-81.4,39.1L-76.75,41.8M-11.6,-1.35L-11.6,-6.75L-6.95,-9.45L-2.3,-6.75M-11.6,-6.75L-16.25,-9.45L-16.25,-14.85L-11.6,-17.5L-6.95,-14.85L-6.95,-9.45M-16.25,-14.85L-20.9,-17.5L-20.9,-22.9L-16.25,-25.6L-11.6,-22.9L-11.6,-17.5M-2.3,-17.5L-6.95,-14.85M-20.9,-1.35L-20.9,-6.75L-16.25,-9.45M-20.9,-6.75L-25.55,-9.45L-25.55,-14.85L-20.9,-17.5M-25.55,-9.45L-30.2,-6.75L-34.85,-9.45L-34.85,-14.85L-30.2,-17.5L-25.55,-14.85M-30.2,-6.75L-30.2,-1.35L-34.85,1.35M-39.55,-1.35L-39.55,-6.75L-34.85,-9.45M-34.85,-14.85L-39.55,-17.5L-39.55,-22.9L-34.85,-25.6L-30.2,-22.9L-30.2,-17.5M-30.2,-33.7L-30.2,-39.1L-25.55,-41.8L-20.9,-39.1L-20.9,-33.7L-25.55,-31L-30.2,-33.7L-34.85,-31L-39.55,-33.7L-39.55,-39.1L-34.85,-41.8L-30.2,-39.1M-20.9,-22.9L-25.55,-25.6L-25.55,-31M-34.85,-25.6L-34.85,-31M-39.55,-39.1L-44.2,-41.8L-44.2,-47.2L-39.55,-49.85L-34.85,-47.2L-34.85,-41.8M-25.55,-41.8L-25.55,-47.2L-20.9,-49.85L-16.25,-47.2L-16.25,-41.8L-20.9,-39.1M-6.95,-31L-11.6,-33.7L-11.6,-39.1L-6.95,-41.8L-2.3,-39.1L-2.3,-33.7L-6.95,-31L-6.95,-25.6L-11.6,-22.9M-16.25,-25.6L-16.25,-31L-11.6,-33.7M-16.25,-41.8L-11.6,-39.1M-16.25,-47.2L-11.6,-49.85L-6.95,-47.2L-6.95,-41.8M-30.2,-22.9L-25.55,-25.6M-16.25,-31L-20.9,-33.7M-6.95,-25.6L-2.3,-22.9M-44.2,1.35L-48.85,-1.35L-48.85,-6.75L-44.2,-9.45L-39.55,-6.75M-58.15,-1.35L-58.15,-6.75L-53.5,-9.45L-48.85,-6.75M-58.15,-6.75L-62.8,-9.45L-62.8,-14.85L-58.15,-17.5L-53.5,-14.85L-53.5,-9.45M-62.8,-14.85L-67.45,-17.5L-67.45,-22.9L-62.8,-25.6L-58.15,-22.9L-58.15,-17.5M-39.55,-17.5L-44.2,-14.85L-48.85,-17.5L-48.85,-22.9L-44.2,-25.6L-39.55,-22.9M-44.2,-9.45L-44.2,-14.85M-53.5,-14.85L-48.85,-17.5M-62.8,1.35L-67.45,-1.35L-67.45,-6.75L-62.8,-9.45M-76.75,-6.75L-81.4,-9.45L-81.4,-14.85L-76.75,-17.5L-72.1,-14.85L-72.1,-9.45L-76.75,-6.75L-76.75,-1.35M-76.75,-17.5L-76.75,-22.9L-72.1,-25.6L-67.45,-22.9M-67.45,-17.5L-72.1,-14.85M-72.1,-9.45L-67.45,-6.75M-67.45,-33.7L-67.45,-39.1L-62.8,-41.8L-58.15,-39.1L-58.15,-33.7L-62.8,-31L-67.45,-33.7ZM-62.8,-25.6L-62.8,-31M-72.1,-25.6L-72.1,-31L-67.45,-33.7M-72.1,-31L-76.75,-33.7L-76.75,-39.1L-72.1,-41.8L-67.45,-39.1M-76.75,-39.1L-81.4,-41.8L-81.4,-47.2L-76.75,-49.85L-72.1,-47.2L-72.1,-41.8M-62.8,-41.8L-62.8,-47.2L-58.15,-49.85L-53.5,-47.2L-53.5,-41.8L-58.15,-39.1M-44.2,-25.6L-44.2,-31L-39.55,-33.7M-44.2,-31L-48.85,-33.7L-48.85,-39.1L-44.2,-41.8M-48.85,-33.7L-53.5,-31L-58.15,-33.7M-48.85,-22.9L-53.5,-25.6L-53.5,-31M-53.5,-41.8L-48.85,-39.1M-58.15,-22.9L-53.5,-25.6M-58.15,-49.85L-58.15,-55.25L-53.5,-57.95L-48.85,-55.25L-48.85,-49.85L-53.5,-47.2M-48.85,-55.25L-44.2,-57.95L-39.55,-55.25L-39.55,-49.85M-58.15,-71.45L-53.5,-74.15L-48.85,-71.45L-48.85,-66.05L-53.5,-63.35L-58.15,-66.05L-58.15,-71.45ZM-48.85,-71.45L-44.2,-74.15L-39.55,-71.45L-39.55,-66.05L-44.2,-63.35L-48.85,-66.05M-44.2,-57.95L-44.2,-63.35M-53.5,-57.95L-53.5,-63.35M-76.75,-49.85L-76.75,-55.25L-72.1,-57.95L-67.45,-55.25L-67.45,-49.85L-72.1,-47.2M-67.45,-55.25L-62.8,-57.95L-58.15,-55.25M-76.75,-55.25L-81.4,-57.95L-81.4,-63.35L-76.75,-66.05L-72.1,-63.35L-72.1,-57.95M-81.4,-63.35L-86.1,-66.05L-86.1,-71.45L-81.4,-74.15L-76.75,-71.45L-76.75,-66.05M-81.4,-74.15L-81.4,-79.55L-76.75,-82.2L-72.1,-79.55L-72.1,-74.15L-76.75,-71.45M-58.15,-66.05L-62.8,-63.35L-67.45,-66.05L-67.45,-71.45L-62.8,-74.15L-58.15,-71.45M-62.8,-57.95L-62.8,-63.35M-72.1,-74.15L-67.45,-71.45M-67.45,-66.05L-72.1,-63.35M-67.45,-82.2L-67.45,-87.6L-62.8,-90.3L-58.15,-87.6L-58.15,-82.2L-62.8,-79.55L-67.45,-82.2L-72.1,-79.55M-76.75,-82.2L-76.75,-87.6L-72.1,-90.3L-67.45,-87.6M-72.1,-90.3L-72.1,-95.7M-62.8,-90.3L-62.8,-95.7M-53.5,-74.15L-53.5,-79.55L-48.85,-82.2L-44.2,-79.55L-44.2,-74.15M-58.15,-82.2L-53.5,-79.55M-58.15,-87.6L-53.5,-90.3L-48.85,-87.6L-48.85,-82.2M-53.5,-90.3L-53.5,-95.7M-44.2,-95.7L-44.2,-90.3L-48.85,-87.6M-62.8,-74.15L-62.8,-79.55M-11.6,-49.85L-11.6,-55.25L-6.95,-57.95L-2.3,-55.25M-20.9,-49.85L-20.9,-55.25L-16.25,-57.95L-11.6,-55.25M-16.25,-63.35L-20.9,-66.05L-20.9,-71.45L-16.25,-74.15L-11.6,-71.45L-11.6,-66.05L-16.25,-63.35L-16.25,-57.95M-2.3,-66.05L-6.95,-63.35L-11.6,-66.05M-11.6,-71.45L-6.95,-74.15L-2.3,-71.45M-6.95,-63.35L-6.95,-57.95M-25.55,-47.2L-30.2,-49.85L-30.2,-55.25L-25.55,-57.95L-20.9,-55.25M-39.55,-55.25L-34.85,-57.95L-30.2,-55.25M-39.55,-71.45L-34.85,-74.15L-30.2,-71.45L-30.2,-66.05L-34.85,-63.35L-39.55,-66.05M-20.9,-71.45L-25.55,-74.15L-25.55,-79.55L-20.9,-82.2L-16.25,-79.55L-16.25,-74.15M-20.9,-66.05L-25.55,-63.35L-30.2,-66.05M-25.55,-74.15L-30.2,-71.45M-34.85,-63.35L-34.85,-57.95M-25.55,-57.95L-25.55,-63.35M-34.85,-74.15L-34.85,-79.55L-30.2,-82.2L-25.55,-79.55M-44.2,-79.55L-39.55,-82.2L-34.85,-79.55M-39.55,-82.2L-39.55,-87.6L-34.85,-90.3L-30.2,-87.6L-30.2,-82.2M-34.85,-90.3L-34.85,-95.7M-16.25,-95.7L-16.25,-90.3L-20.9,-87.6L-25.55,-90.3L-25.55,-95.7M-25.55,-90.3L-30.2,-87.6M-20.9,-82.2L-20.9,-87.6M-6.95,-79.55L-11.6,-82.2L-11.6,-87.6L-6.95,-90.3L-2.3,-87.6L-2.3,-82.2L-6.95,-79.55L-6.95,-74.15M-16.25,-79.55L-11.6,-82.2M-11.6,-87.6L-16.25,-90.3M-6.95,-95.7L-6.95,-90.3M-44.2,-90.3L-39.55,-87.6M-62.8,-47.2L-67.45,-49.85M-44.2,-47.2L-48.85,-49.85M-30.2,-49.85L-34.85,-47.2M-2.3,-49.85L-6.95,-47.2M-95.4,-1.35L-95.4,-6.75L-90.75,-9.45L-86.1,-6.75L-86.1,-1.35L-90.75,1.35M-86.1,-6.75L-81.4,-9.45M-100.05,1.35L-104.7,-1.35L-104.7,-6.75L-100.05,-9.45L-95.4,-6.75M-95.4,-17.5L-100.05,-14.85L-104.7,-17.5L-104.7,-22.9L-100.05,-25.6L-95.4,-22.9L-95.4,-17.5ZM-95.4,-22.9L-90.75,-25.6L-86.1,-22.9L-86.1,-17.5L-90.75,-14.85L-95.4,-17.5M-81.4,-14.85L-86.1,-17.5M-100.05,-9.45L-100.05,-14.85M-90.75,-14.85L-90.75,-9.45M-109.35,-9.45L-104.7,-6.75M-104.7,-17.5L-109.35,-14.85M-109.35,-41.8L-104.7,-39.1L-104.7,-33.7L-109.35,-31M-90.75,-25.6L-90.75,-31L-86.1,-33.7L-81.4,-31L-81.4,-25.6L-86.1,-22.9M-100.05,-25.6L-100.05,-31L-95.4,-33.7L-90.75,-31M-100.05,-47.2L-95.4,-49.85L-90.75,-47.2L-90.75,-41.8L-95.4,-39.1L-100.05,-41.8L-100.05,-47.2L-104.7,-49.85M-90.75,-41.8L-86.1,-39.1L-86.1,-33.7M-86.1,-39.1L-81.4,-41.8M-95.4,-33.7L-95.4,-39.1M-109.35,-25.6L-104.7,-22.9M-100.05,-31L-104.7,-33.7M-104.7,-39.1L-100.05,-41.8M-95.4,-49.85L-95.4,-55.25L-90.75,-57.95L-86.1,-55.25L-86.1,-49.85L-90.75,-47.2M-86.1,-55.25L-81.4,-57.95M-95.4,-55.25L-100.05,-57.95L-100.05,-63.35L-95.4,-66.05L-90.75,-63.35L-90.75,-57.95M-100.05,-63.35L-104.7,-66.05L-104.7,-71.45L-100.05,-74.15L-95.4,-71.45L-95.4,-66.05M-95.4,-71.45L-90.75,-74.15L-86.1,-71.45M-86.1,-66.05L-90.75,-63.35M-109.35,-57.95L-104.7,-55.25L-104.7,-49.85L-109.35,-47.2M-109.35,-74.15L-104.7,-71.45M-104.7,-66.05L-109.35,-63.35M-109.35,-90.3L-104.7,-87.6L-104.7,-82.2L-109.35,-79.55M-81.4,-79.55L-86.1,-82.2L-86.1,-87.6L-81.4,-90.3L-76.75,-87.6M-86.1,-82.2L-90.75,-79.55L-95.4,-82.2L-95.4,-87.6L-90.75,-90.3L-86.1,-87.6M-100.05,-74.15L-100.05,-79.55L-95.4,-82.2M-95.4,-87.6L-100.05,-90.3L-100.05,-95.7M-81.4,-95.7L-81.4,-90.3M-90.75,-95.7L-90.75,-90.3M-90.75,-79.55L-90.75,-74.15M-104.7,-55.25L-100.05,-57.95M-100.05,-79.55L-104.7,-82.2M-104.7,-87.6L-100.05,-90.3M-81.4,-47.2L-86.1,-49.85M-76.75,-33.7L-81.4,-31M-81.4,-25.6L-76.75,-22.9M-67.45,-1.35L-72.1,1.35M-104.7,-1.35L-109.35,1.35M-81.4,1.35L-86.1,-1.35M-25.55,1.35L-30.2,-1.35M-53.5,1.35L-48.85,-1.35M-2.3,-1.35L-6.95,1.35M-2.3,57.95L2.35,55.25M2.35,66.05L-2.3,63.35M-2.3,-39.1L2.35,-41.8M2.35,-31L-2.3,-33.7M2.35,-79.55L-2.3,-82.2M-2.3,-87.6L2.35,-90.3M-2.3,9.45L2.35,6.75M2.35,17.5L-2.3,14.85" style="fill:none;stroke:rgb(152,152,152);stroke-width:0.5px;"/>
                            </g>
                        </g>
                    </g>
                </g>
                <g>
                    <g>
                        <path d="M79.1,110.95C79.067,110.283 79.05,109.617 79.05,108.95C79.05,108.25 79.067,107.584 79.1,106.95C79.1,106.883 79.117,106.816 79.15,106.75C79.584,99.383 82.483,93.017 87.85,87.65C93.75,81.817 100.833,78.9 109.1,78.9C117.401,78.9 124.484,81.817 130.35,87.65C136.184,93.584 139.1,100.683 139.1,108.95C139.1,117.217 136.184,124.3 130.35,130.2C130.151,130.433 129.934,130.65 129.701,130.849C128.734,131.783 127.718,132.633 126.651,133.4C121.585,137.133 115.734,139 109.1,139C102.467,139 96.634,137.134 91.6,133.4C90.267,132.466 89.017,131.4 87.85,130.2C83.317,125.7 80.533,120.467 79.5,114.5C79.3,113.334 79.167,112.15 79.1,110.95M126.1,127.25L129.701,130.85L126.1,127.25" style="fill:rgb(53,198,244);"/>
                        <g>
                            <path d="M158.6,60.25L143.6,74.9M31.7,33.1L72.45,73.75M126.1,127.25L129.701,130.85M157.05,158L184.7,186.6M153.05,153.95L142.3,142.75M186.6,33L158.6,60.25M33.15,186.25L60.5,158.85" style="fill:none;stroke:rgb(53,198,244);stroke-width:2px;stroke-linecap:butt;"/>
                            <path d="M158.6,60.25L141.651,77.45M59.4,61.35L76.6,78.5M60.5,158.85L77.25,141.451M153.05,153.95L157.05,158M139.45,140.4L153.05,153.95" style="fill:none;stroke:rgb(53,198,244);stroke-width:7px;stroke-linecap:butt;"/>
                        </g>
                    </g>
                </g>
            </g>
        </g>
        <g id="sonarr.svg1" serif:id="sonarr.svg">
        </g>
    </g>
</svg>
