<?xml version="1.0" encoding="UTF-8" standalone="no"?><!DOCTYPE svg PUBLIC "-//W3C//DTD SVG 1.1//EN" "http://www.w3.org/Graphics/SVG/1.1/DTD/svg11.dtd"><svg width="200px" height="200px" version="1.1" xmlns="http://www.w3.org/2000/svg" xmlns:xlink="http://www.w3.org/1999/xlink" xml:space="preserve" xmlns:serif="http://www.serif.com/" style="fill-rule:evenodd;clip-rule:evenodd;stroke-linejoin:round;stroke-miterlimit:2;"><g transform="matrix(1.62857,0,0,1.62857,18.5939,18.5782)"><path d="M93.578,65.91L92.816,65.91L92.82,14.398C92.82,11.679 90.609,9.468 87.89,9.468L54.499,9.468L54.499,5.468C54.499,4.32 53.57,3.39 52.421,3.39L47.601,3.39C46.453,3.39 45.523,4.32 45.523,5.468L45.523,9.468L12.125,9.468C9.406,9.468 7.195,11.679 7.195,14.398L7.195,65.91L6.422,65.91C4.75,65.91 3.391,67.269 3.391,68.941L3.391,71.332C3.391,73.004 4.75,74.363 6.422,74.363L31.832,74.363L26.73,93.383C26.519,94.172 26.679,94.961 27.172,95.602C27.672,96.25 28.39,96.602 29.203,96.602L32.902,96.602C34.402,96.602 35.672,95.633 36.062,94.18L37.441,89.032L62.531,89.032L63.91,94.18C64.301,95.629 65.57,96.602 67.07,96.602L70.769,96.602C71.578,96.602 72.309,96.242 72.801,95.602C73.301,94.953 73.449,94.172 73.242,93.383L68.14,74.363L93.55,74.363C95.222,74.363 96.582,73.004 96.582,71.332L96.582,68.941C96.609,67.269 95.25,65.91 93.578,65.91L93.578,65.91ZM47.781,5.66L52.222,5.66L52.222,9.469L47.781,9.469L47.781,5.66ZM9.449,14.398C9.449,12.937 10.64,11.75 12.097,11.75L87.886,11.75C89.347,11.75 90.535,12.941 90.535,14.398L90.535,65.91L85.015,65.91L85.015,62.91C85.015,61.129 83.566,59.68 81.785,59.68L71.519,59.68C69.738,59.68 68.288,61.129 68.288,62.91L68.288,65.91L9.448,65.91L9.449,14.398ZM82.75,65.91L70.551,65.91L70.551,62.91C70.551,62.379 70.981,61.949 71.512,61.949L81.782,61.949C82.313,61.949 82.743,62.379 82.743,62.91L82.739,65.91L82.75,65.91ZM33.879,93.601C33.758,94.051 33.379,94.34 32.918,94.34L29.219,94.34C29.117,94.34 29.059,94.308 28.988,94.23C28.93,94.152 28.91,94.082 28.938,93.98L34.188,74.371L39.027,74.371L33.879,93.601ZM58.621,74.371L60.14,80.051L39.859,80.051L41.379,74.371L58.621,74.371ZM38.059,86.762L39.25,82.321L60.738,82.321L61.93,86.762L38.059,86.762ZM71.071,93.981C71.102,94.083 71.083,94.153 71.02,94.231C70.962,94.309 70.899,94.34 70.79,94.34L67.091,94.34C66.622,94.34 66.251,94.051 66.13,93.602L60.981,74.372L65.821,74.372L71.071,93.981ZM94.341,71.34C94.341,71.762 94.001,72.102 93.579,72.102L6.423,72.102C6.001,72.102 5.662,71.762 5.662,71.34L5.662,68.95C5.662,68.528 6.001,68.188 6.423,68.188L93.583,68.188C94.005,68.188 94.345,68.528 94.345,68.95L94.341,71.34ZM19.06,25.34C19.06,24.711 19.572,24.2 20.201,24.2L79.81,24.2C80.439,24.2 80.95,24.711 80.95,25.34C80.95,25.969 80.438,26.481 79.81,26.481L20.193,26.481C19.572,26.469 19.06,25.961 19.06,25.34L19.06,25.34ZM19.06,43.328C19.06,42.699 19.572,42.188 20.201,42.188L79.81,42.188C80.439,42.188 80.95,42.699 80.95,43.328C80.95,43.957 80.438,44.469 79.81,44.469L20.193,44.469C19.572,44.461 19.06,43.949 19.06,43.328L19.06,43.328ZM45.81,52.32C45.81,52.949 45.298,53.461 44.669,53.461L20.192,53.461C19.563,53.461 19.052,52.949 19.052,52.32C19.052,51.691 19.564,51.18 20.192,51.18L44.672,51.18C45.301,51.18 45.809,51.691 45.809,52.32L45.81,52.32ZM19.06,34.328C19.06,33.699 19.572,33.188 20.201,33.188L79.81,33.188C80.439,33.188 80.95,33.699 80.95,34.328C80.95,34.957 80.438,35.469 79.81,35.469L20.193,35.469C19.572,35.469 19.06,34.961 19.06,34.328L19.06,34.328Z" style="fill:rgb(240,147,131);fill-rule:nonzero;"/></g></svg>